<?xml version="1.0" standalone="no"?>
<!DOCTYPE svg PUBLIC "-//W3C//DTD SVG 1.1//EN" "http://www.w3.org/Graphics/SVG/1.1/DTD/svg11.dtd" >
<!--
2013-9-30: Created.
-->
<svg>
<metadata>
Created by iconfont
</metadata>
<defs>

<font id="iconfont" horiz-adv-x="1024" >
  <font-face
    font-family="iconfont"
    font-weight="500"
    font-stretch="normal"
    units-per-em="1024"
    ascent="896"
    descent="-128"
  />
    <missing-glyph />
    
    <glyph glyph-name="vm-pool" unicode="&#58974;" d="M681.82712763 756.32712762c-306.26329807 0-554.72074475-109.14893618-554.72074476-244.14893618s248.45744668-236.96808481 554.72074475-236.96808481 554.72074475 101.96808481 554.72074475 236.96808481-248.45744668 244.14893618-554.72074475 244.14893619z m-1e-8-406.43617044c-253.84308481 0-459.57446768 75.39893618-459.57446768 168.39095801s205.73138288 168.39095718 459.57446769 168.39095719 459.57446768-75.39893618 459.5744685-168.39095719-206.09042569-168.39095718-459.5744685-168.39095801zM463.52925525 737.6569151900001h89.76063812v-427.26063894h-89.76063812zM765.125 726.88563813h89.76063813v-427.26063813h-89.76063813zM1213.92819144 517.20478757c-19.74734006-17.23404282-40.57180856-33.03191519-61.03723426-49.18883039-3.23138287-2.51329807-7.18085138-3.94946768-10.77127624-3.94946768v-304.82712762S922.38563813 66.24734006000006 681.82712763 66.24734006000006 212.19946768 159.23936188000005 212.19946768 159.23936188000005V469.45212763C187.42553233 482.73670193 163.72872375 497.09840387 140.75 512.89627625c-5.02659612-0.71808481-9.69414862-1.79521243-14.72074475-2.87234007V98.56117042999995s272.87234006-114.89361713 560.10638288-114.89361711 549.33510664 114.89361713 549.33510662 114.89361711V524.38563813c-6.82180856-2.87234006-14.36170193-5.38563813-21.54255331-7.18085056z"  horiz-adv-x="1424" />

    
    <glyph glyph-name="storage-detaching" unicode="&#58914;" d="M781.66217017 687.36437988H478.29779029c-9.29937744 0-17.25402856-3.29260253-23.84417701-9.87780761-6.6049807-6.60992408-9.89758325-14.53491211-9.89758325-23.84417701v-303.36932398c0-9.29937744 3.29260253-17.21942138 9.89758325-23.82934546 6.59014916-6.56542945 14.54479957-9.88275171 23.84417701-9.8827517h303.36437988c9.3092649 0 17.25402856 3.31732154 23.82934618 9.87780762 6.61486816 6.61486816 9.90252662 14.53491211 9.90252662 23.83428955V653.6423952600001c0 9.31420898-3.28765845 17.23425293-9.89758325 23.84417701-6.58520508 6.58520508-14.52502465 9.87780761-23.83428955 9.87780761z m-404.50561476-337.05175805V451.4340818H242.35266137c-9.31915307 0-17.22930884-3.30743408-23.86395263-9.87780762-6.56048608-6.6049807-9.87780761-14.53491211-9.87780762-23.84417701v-303.3594358c0-9.31420898 3.31237817-17.27380347 9.87780762-23.78485155 6.63464379-6.69396997 14.54479957-9.88769508 23.86395263-9.88769508H545.71704125c9.29937744 0 17.23425293 3.19372583 23.85406447 9.88769508 6.56542945 6.51104737 9.87780761 14.47064185 9.87780762 23.77990747v134.82861303H478.31756592c-27.89318824 0-51.76208497 9.86792016-71.51275611 29.6235354-19.74572778 19.75067115-29.62353539 43.5849607-29.62353539 71.47814966l-0.01977564 0.03955054zM478.30273437 754.78857422h303.36437988c27.92285133 0 51.74725342-9.86792016 71.50286866-29.62353539 19.75561523-19.75561523 29.62353539-43.58990479 29.62353539-71.48803711v-303.36437989c0-27.9327395-9.86792016-51.72253442-29.62353539-71.49792456-19.75561523-19.74572778-43.58001733-29.62353539-71.50286865-29.62353539h-134.81872559v-134.8187256c0-27.9327395-9.88275171-51.72253442-29.62847876-71.49792456-19.75561523-19.77539086-43.60473633-29.66308594-71.50286866-29.66308594H242.34771729c-27.90307641 0-51.75714087 9.88769508-71.51275612 29.66308594C151.07934594 62.64990258 141.21142578 86.44464086999994 141.21142578 114.37738036999997V417.72692872c0 27.91296386 9.86792016 51.75714087 29.62353539 71.50286865 19.75561523 19.75561523 43.60968041 29.61859131 71.51275612 29.6185913h134.81378149V653.67700172c0 27.89813232 9.87780761 51.73242188 29.62353539 71.48803711C426.54064942 744.9206540600001 450.37493896 754.78857422 478.29779029 754.78857422z"  horiz-adv-x="1024" />

    
    <glyph glyph-name="qita" unicode="&#58904;" d="M214.699873 384m-87.440491 0a85.449 85.449 0 1 0 174.880983 0 85.449 85.449 0 1 0-174.880983 0ZM809.300127 384m-87.440491 0a85.449 85.449 0 1 0 174.880983 0 85.449 85.449 0 1 0-174.880983 0ZM512.005117 384m-87.440491 0a85.449 85.449 0 1 0 174.880983 0 85.449 85.449 0 1 0-174.880983 0Z"  horiz-adv-x="1024" />

    
    <glyph glyph-name="tc-isjoined" unicode="&#59227;" d="M825.92 188.96000000000004l-90.688 90.208c-8.096 8.064-23.488 9.056-27.872-1.44-1.184-2.816-1.472-10.752-1.472-10.752v-60.96h-307.008a73.984 73.984 0 0 0-74.112 73.696 73.984 73.984 0 0 0 74.112 73.728h278.464c75.968 0 137.76 61.44 137.76 136.992 0 75.552-61.792 137.024-137.76 137.024H404.8A108.896 108.896 0 0 1 300.8 704C240.768 704 192 655.456 192 595.808c0-59.68 48.8-108.192 108.8-108.192a108.896 108.896 0 0 1 104 76.544h272.544a73.984 73.984 0 0 0 74.112-73.728 73.984 73.984 0 0 0-74.112-73.696h-278.464c-75.968 0-137.76-61.44-137.76-137.024 0-75.52 61.76-136.992 137.76-136.992h307.008v-57.856s0-8.864 1.472-12.384c4.384-10.528 19.776-10.976 27.84-2.88l90.72 90.176a20.544 20.544 0 0 1 0 29.184zM300.8 550.912c-24.896 0-45.12 20.16-45.12 44.896S275.872 640.64 300.8 640.64c24.864 0 45.12-20.128 45.12-44.864 0-24.768-20.256-44.896-45.12-44.896z"  horiz-adv-x="1024" />

    
    <glyph glyph-name="storage-inactive" unicode="&#59615;" d="M933.888 828.4159999999999L78.336 400.896c-19.456-9.728-17.92-19.968 3.584-23.04l332.8-47.616c18.432-2.56 35.84-19.968 38.4-38.4l47.616-332.8c3.072-21.504 13.312-23.552 23.04-3.584l47.616 94.72c-20.992 30.72-32.768 67.584-32.768 107.52 0 102.912 80.896 186.88 182.784 192L952.32 811.52c9.216 18.944 1.536 27.136-18.432 16.896zM739.84 307.712c-89.088 0-161.28-72.192-161.28-161.28s72.192-161.28 161.28-161.28 161.28 72.192 161.28 161.28-72.192 161.28-161.28 161.28z m80.896-195.072c0-3.584-3.072-6.144-6.144-6.144h-110.08c-2.56 1.024-4.096 3.072-4.096 6.144v108.544c0 3.584 3.072 6.144 6.144 6.144h27.648c3.584 0 6.144-3.072 6.144-6.144v-74.24H814.08c3.584 0 6.144-3.072 6.144-6.144l0.512-28.16z"  horiz-adv-x="1024" />

    
    <glyph glyph-name="storage-activing" unicode="&#58963;" d="M933.888 828.4159999999999L78.336 400.896c-19.456-9.728-17.92-19.968 3.584-23.04l332.8-47.616c18.432-2.56 35.84-19.968 38.4-38.4l47.616-332.8c3.072-21.504 13.312-23.552 23.04-3.584l47.616 94.72c-20.992 30.72-32.768 67.584-32.768 107.52 0 102.912 80.896 186.88 182.784 192L952.32 811.52c9.216 18.944 1.536 27.136-18.432 16.896zM739.84 307.712c-89.088 0-161.28-72.192-161.28-161.28s72.192-161.28 161.28-161.28 161.28 72.192 161.28 161.28-72.192 161.28-161.28 161.28z m80.896-195.072c0-3.584-3.072-6.144-6.144-6.144h-110.08c-2.56 1.024-4.096 3.072-4.096 6.144v108.544c0 3.584 3.072 6.144 6.144 6.144h27.648c3.584 0 6.144-3.072 6.144-6.144v-74.24H814.08c3.584 0 6.144-3.072 6.144-6.144l0.512-28.16z"  horiz-adv-x="1024" />

    
    <glyph glyph-name="storage-active" unicode="&#59607;" d="M414.663 329.87800000000004c18.49-2.641 35.666-19.796 38.311-38.31l47.535-332.746c3.086-21.598 13.503-23.329 23.26-3.814L951.767 811.003c9.772 19.543 1.848 27.425-17.667 17.667L78.104 400.674c-19.543-9.772-17.807-20.172 3.814-23.26l332.745-47.536z"  horiz-adv-x="1024" />

    
    <glyph glyph-name="host-preparingformaintenance" unicode="&#58959;" d="M240.64 527.36l120.32-120.32 49.152 49.152-120.32 120.32-26.624 51.2-86.016 61.44L128 640l61.44-85.504zM545.792 253.44000000000005c9.216 8.704 18.944 16.896 29.184 23.552l68.608 68.608c107.52-22.528 210.944 49.152 227.328 156.672 4.096 26.112-6.144 40.448-19.968 40.448-6.144 0-13.312-3.072-19.968-9.728l-37.888-37.888c-40.448-40.448-106.496-40.448-146.944 0-40.448 40.448-40.448 106.496 0 146.944l37.888 37.888c18.944 18.944 9.728 40.448-19.968 40.448-3.584 0-7.168-0.512-10.752-1.024-107.52-16.896-179.2-120.32-156.672-227.84l-318.976-319.488c-40.448-40.448-40.448-106.496 0-146.944 40.448-40.448 106.496-40.448 146.944 0l166.912 168.96c16.384 21.504 35.328 41.984 54.272 59.392z m-270.336-177.664c-13.824-13.312-35.84-13.312-49.152 0-22.016 22.016-6.144 58.88 24.576 58.88s46.592-36.864 24.576-58.88z m-21.504 107.008l276.48 276.48c11.264 11.264 16.384 27.648 12.8 43.52-10.24 47.616 4.608 96.768 38.912 131.072-9.216-19.968-14.336-41.984-14.336-65.024 0-40.448 15.872-78.848 44.544-107.52s66.56-44.544 107.52-44.544c23.04 0 45.056 5.12 65.024 14.336-27.136-27.136-63.488-41.984-101.376-41.984-10.24 0-19.968 1.024-29.696 3.072-15.872 3.584-32.256-1.536-43.52-12.8l-276.992-276.48c-1.536 43.52-36.352 78.336-79.36 79.872zM649.728 265.216c-71.68 0-130.048-58.368-130.048-130.048s58.368-130.048 130.048-130.048 130.048 58.368 130.048 130.048-58.368 130.048-130.048 130.048z m65.024-157.696c0-2.56-2.048-5.12-5.12-5.12h-87.552H620.544c-2.048 0.512-3.584 2.56-3.584 4.608V194.55999999999995c0 2.56 2.048 5.12 5.12 5.12h22.528c2.56 0 5.12-2.048 5.12-5.12v-59.904h59.904c2.56 0 5.12-2.048 5.12-5.12v-22.016z"  horiz-adv-x="1024" />

    
    <glyph glyph-name="storage-preparingformaintenance" unicode="&#59605;" d="M240.64 527.36l120.32-120.32 49.152 49.152-120.32 120.32-26.624 51.2-86.016 61.44L128 640l61.44-85.504zM545.792 253.44000000000005c9.216 8.704 18.944 16.896 29.184 23.552l68.608 68.608c107.52-22.528 210.944 49.152 227.328 156.672 4.096 26.112-6.144 40.448-19.968 40.448-6.144 0-13.312-3.072-19.968-9.728l-37.888-37.888c-40.448-40.448-106.496-40.448-146.944 0-40.448 40.448-40.448 106.496 0 146.944l37.888 37.888c18.944 18.944 9.728 40.448-19.968 40.448-3.584 0-7.168-0.512-10.752-1.024-107.52-16.896-179.2-120.32-156.672-227.84l-318.976-319.488c-40.448-40.448-40.448-106.496 0-146.944 40.448-40.448 106.496-40.448 146.944 0l166.912 168.96c16.384 21.504 35.328 41.984 54.272 59.392z m-270.336-177.664c-13.824-13.312-35.84-13.312-49.152 0-22.016 22.016-6.144 58.88 24.576 58.88s46.592-36.864 24.576-58.88z m-21.504 107.008l276.48 276.48c11.264 11.264 16.384 27.648 12.8 43.52-10.24 47.616 4.608 96.768 38.912 131.072-9.216-19.968-14.336-41.984-14.336-65.024 0-40.448 15.872-78.848 44.544-107.52s66.56-44.544 107.52-44.544c23.04 0 45.056 5.12 65.024 14.336-27.136-27.136-63.488-41.984-101.376-41.984-10.24 0-19.968 1.024-29.696 3.072-15.872 3.584-32.256-1.536-43.52-12.8l-276.992-276.48c-1.536 43.52-36.352 78.336-79.36 79.872zM649.728 265.216c-71.68 0-130.048-58.368-130.048-130.048s58.368-130.048 130.048-130.048 130.048 58.368 130.048 130.048-58.368 130.048-130.048 130.048z m65.024-157.696c0-2.56-2.048-5.12-5.12-5.12h-87.552H620.544c-2.048 0.512-3.584 2.56-3.584 4.608V194.55999999999995c0 2.56 2.048 5.12 5.12 5.12h22.528c2.56 0 5.12-2.048 5.12-5.12v-59.904h59.904c2.56 0 5.12-2.048 5.12-5.12v-22.016z"  horiz-adv-x="1024" />

    
    <glyph glyph-name="host-installingos" unicode="&#58953;" d="M389.19 288.46000000000004c-26.16 0-51.02 13.41-65.32 35.9l-74.88 117.76c-16.19 25.47-16.08 58.24 0.25 83.5l54.12 83.65c9.36 14.44 28.67 18.58 43.12 9.24 14.45-9.35 18.59-28.65 9.24-43.12l-54.11-83.64c-3.15-4.86-3.15-11.23 0.01-16.18l74.87-117.76c3.16-4.94 8.86-7.58 14.65-6.86l33.48 4.59c16.93 2.38 32.77-9.6 35.12-26.67 2.33-17.06-9.61-32.78-26.67-35.12l-33.47-4.58c-3.48-0.48-6.96-0.71-10.41-0.71zM620.99 415.65c-5.8 0-11.66 1.61-16.9 4.99-14.46 9.36-18.6 28.65-9.26 43.12l18.35 28.38c3.16 4.87 3.16 11.23 0.01 16.18l-74.87 117.75c-3.16 4.95-8.87 7.64-14.67 6.85l-98.76-13.54c-17.14-2.43-32.79 9.59-35.13 26.64-2.34 17.06 9.59 32.79 26.65 35.13l98.77 13.56c29.73 4.03 59.56-9.71 75.75-35.18l74.87-117.76c16.19-25.44 16.09-58.23-0.25-83.49L647.2 429.9c-5.96-9.23-15.98-14.25-26.21-14.25zM598.29 92.62c-14.26 0-32.74 5.36-55.31 22.55-22.8 17.36-46.24 44.03-66 75.13L402.3 307.76c-9.25 14.53-4.95 33.8 9.58 43.03 14.53 9.24 33.79 4.95 43.03-9.58l74.68-117.46c27.07-42.57 55.24-64.45 66.52-68.27l106.64 67.81c1.34 11.81-6.52 46.62-33.59 89.2l-74.68 117.46c-9.25 14.53-4.95 33.8 9.58 43.03 14.53 9.25 33.79 4.95 43.03-9.58l74.68-117.46c41.57-65.37 63.41-144.14 18.45-172.73l-114.66-72.88c-5.92-3.77-15.04-7.71-27.27-7.71zM614.47 213.25c-10.31 0-20.4 5.11-26.34 14.45l-52.37 82.37c-9.25 14.53-4.95 33.8 9.58 43.03 14.53 9.23 33.79 4.94 43.03-9.58l52.37-82.37c9.25-14.53 4.95-33.8-9.58-43.03a30.945 30.945 0 0 0-16.69-4.87zM401.4 506.26c-25.55 0-50.56 12.65-65.26 35.76l-25.51 40.11c-9.25 14.52-4.95 33.8 9.58 43.03 14.52 9.25 33.81 4.95 43.03-9.58l25.51-40.11c4.3-6.77 13.64-8.86 20.47-4.56 4.45 2.83 5.96 7.04 6.46 9.3 0.51 2.26 0.92 6.72-1.91 11.17l-25.5 40.11c-9.25 14.52-4.95 33.8 9.58 43.03 14.53 9.24 33.79 4.95 43.03-9.58l25.51-40.11c22.84-35.93 12.19-83.72-23.72-106.55-12.8-8.13-27.12-12.02-41.27-12.02zM501-55.5C253.15-55.5 51.5 146.14999999999998 51.5 394S253.15 843.5 501 843.5 950.5 641.85 950.5 394 748.85-55.5 501-55.5z m0 836.64c-213.47 0-387.14-173.67-387.14-387.14S287.53 6.860000000000014 501 6.860000000000014 888.14 180.52999999999997 888.14 394 714.47 781.14 501 781.14zM581.47 267.25c-10.31 0-20.4 5.11-26.34 14.45l-52.37 82.37c-9.25 14.53-4.95 33.8 9.58 43.03 14.53 9.23 33.79 4.94 43.03-9.58l52.37-82.37c9.25-14.53 4.95-33.8-9.58-43.03a30.945 30.945 0 0 0-16.69-4.87z"  horiz-adv-x="1024" />

    
    <glyph glyph-name="storage-maintenance" unicode="&#59604;" d="M582.485 634.076c-9.432-19.992-14.359-42.093-14.359-64.901 0-40.682 15.771-78.692 44.484-107.409 28.581-28.578 66.731-44.489 107.413-44.489 22.809 0 44.909 4.933 64.9 14.501-27.031-27.311-63.349-42.092-101.5-42.092-9.996 0-19.993 1.129-29.703 3.101-15.631 3.374-32.238-1.55-43.643-12.954L333.312 103.20600000000002c-1.41 43.219-36.318 77.991-79.542 79.538L530.257 459.37c11.407 11.408 16.331 27.735 12.954 43.643-9.993 47.723 4.504 96.855 39.136 131.063h0.138z m48.288-417.121l152.038-152.039c8.447-8.446 8.447-22.242 0-30.549-8.306-8.306-22.245-8.306-30.548 0L600.226 186.40599999999995l30.547 30.549z m33.506 504.544c-3.522 0-7.185-0.424-10.844-0.846C545.742 703.76 474.091 600.289 496.61 493.016l-319.14-319.28c-40.682-40.541-40.682-106.567 0-146.97 40.402-40.404 106.712-40.404 146.974 0l319.28 319.28c107.272-22.382 210.884 48.992 227.497 156.827 4.082 25.9-6.335 40.682-19.995 40.682-6.335 0-13.23-3.093-19.987-9.713l-38.009-38.01c-40.401-40.402-106.713-40.402-147.114 0-40.682 40.687-40.682 106.568 0 147.111l38.01 38.009c19.004 18.865 9.577 40.687-19.847 40.547zM226.463 75.755c-21.962 21.963-5.915 59.126 24.494 59.126s46.737-37.163 24.639-59.126c-13.659-13.516-35.617-13.516-49.133 0zM177.19 689.119l-49.129-48.989 61.238-85.876 51.38-27.026 120.224-120.224 48.988 48.993-119.938 120.362-27.027 51.381-85.736 61.379z m441.334-416.837l-73.486-73.487c-6.756-6.755-6.756-17.738 0-24.497l173.578-173.577c27.027-26.89 71.092-27.031 98.123 0s27.031 71.097 0 98.123L643.162 272.423c-6.899 6.755-17.742 6.755-24.638-0.141z"  horiz-adv-x="1024" />

    
    <glyph glyph-name="host-maintenance" unicode="&#58908;" d="M582.485 634.076c-9.432-19.992-14.359-42.093-14.359-64.901 0-40.682 15.771-78.692 44.484-107.409 28.581-28.578 66.731-44.489 107.413-44.489 22.809 0 44.909 4.933 64.9 14.501-27.031-27.311-63.349-42.092-101.5-42.092-9.996 0-19.993 1.129-29.703 3.101-15.631 3.374-32.238-1.55-43.643-12.954L333.312 103.20600000000002c-1.41 43.219-36.318 77.991-79.542 79.538L530.257 459.37c11.407 11.408 16.331 27.735 12.954 43.643-9.993 47.723 4.504 96.855 39.136 131.063h0.138z m48.288-417.121l152.038-152.039c8.447-8.446 8.447-22.242 0-30.549-8.306-8.306-22.245-8.306-30.548 0L600.226 186.40599999999995l30.547 30.549z m33.506 504.544c-3.522 0-7.185-0.424-10.844-0.846C545.742 703.76 474.091 600.289 496.61 493.016l-319.14-319.28c-40.682-40.541-40.682-106.567 0-146.97 40.402-40.404 106.712-40.404 146.974 0l319.28 319.28c107.272-22.382 210.884 48.992 227.497 156.827 4.082 25.9-6.335 40.682-19.995 40.682-6.335 0-13.23-3.093-19.987-9.713l-38.009-38.01c-40.401-40.402-106.713-40.402-147.114 0-40.682 40.687-40.682 106.568 0 147.111l38.01 38.009c19.004 18.865 9.577 40.687-19.847 40.547zM226.463 75.755c-21.962 21.963-5.915 59.126 24.494 59.126s46.737-37.163 24.639-59.126c-13.659-13.516-35.617-13.516-49.133 0zM177.19 689.119l-49.129-48.989 61.238-85.876 51.38-27.026 120.224-120.224 48.988 48.993-119.938 120.362-27.027 51.381-85.736 61.379z m441.334-416.837l-73.486-73.487c-6.756-6.755-6.756-17.738 0-24.497l173.578-173.577c27.027-26.89 71.092-27.031 98.123 0s27.031 71.097 0 98.123L643.162 272.423c-6.899 6.755-17.742 6.755-24.638-0.141z"  horiz-adv-x="1024" />

    
    <glyph glyph-name="vm-ImageIllegal" unicode="&#58951;" d="M512 287.744c-20.48 20.48-40.96 40.448-59.904 61.952v-169.984l-222.208-59.392v251.392c-22.528 16.384-45.056 32.768-66.56 49.664v-351.744c0-24.576 19.968-44.544 44.544-44.544 3.072 0 6.144 0.512 9.216 1.024l271.872 84.992c17.92 9.216 30.208 27.648 30.208 49.152v122.88c-2.56 1.024-5.12 2.56-7.168 4.608zM229.888 653.8240000000001l222.208-59.392v-160.768c16.896-30.208 41.472-56.32 66.56-80.896V612.864c0 24.576-15.872 45.568-38.4 52.736 0.512 0 1.024-0.512 1.536-0.512L217.088 748.032c-3.072 0.512-6.144 1.024-9.216 1.024-24.576 0-44.544-19.968-44.544-44.544v-216.576c21.504-18.944 44.032-35.84 66.56-52.736V653.8240000000001zM601.6 153.60000000000002c-1.024 4.608 45.568 58.368 54.272 72.192-7.168 13.824-22.528 39.936-22.528 39.936s27.648 59.904 32.768 67.072c1.024 1.024 3.584 5.12 5.12 8.192-12.8 23.04-26.624 46.08-31.744 72.192-1.024 6.144 26.624 60.928 34.816 70.144 2.56 3.072-2.048-2.56 0 0-8.704 11.264-19.968 23.552-29.696 30.72-11.264 8.192-15.36 4.608-5.12 22.016 2.56 4.608 32.768 115.2 46.592 160.256l-95.744-30.208h1.024c-23.552-6.656-40.96-28.16-40.96-53.248v-452.096c0-21.504 12.288-39.936 30.208-49.152l49.152-15.36c-11.776 17.408-25.088 45.568-28.16 57.344zM862.208 749.056c-3.072 0-6.144-0.512-9.216-1.024l-105.984-33.28c-23.04-57.344-32.768-119.296-51.712-177.664 8.704-8.704 16.384-17.92 24.064-27.648 0 0 17.92-17.408 11.264-27.648-13.824-21.504-27.136-39.936-39.936-58.88 5.632-23.552 33.28-84.992 33.28-87.04-0.512-2.56-23.04-40.96-37.888-58.368 5.12-8.704 17.92-43.008 17.92-43.008s-30.208-65.536-45.568-82.944c-0.512-0.512 27.136-44.544 37.376-66.56 1.536-3.584 3.584-7.68 5.12-11.264l152.064-47.616c3.072-0.512 6.144-1.024 9.216-1.024 24.576 0 44.544 19.968 44.544 44.544v634.88c0 24.576-19.968 44.544-44.544 44.544z"  horiz-adv-x="1024" />

    
    <glyph glyph-name="vm-imagelocked" unicode="&#58952;" d="M862.208 749.056c-3.072 0-6.144-0.512-9.216-1.024l-262.144-81.92h1.024c-23.552-6.656-40.96-28.16-40.96-53.248V358.4c3.584 0 7.168-1.024 10.752-2.56 34.816-16.384 80.384-110.08 81.92-113.664 23.552-49.152 29.696-105.984 29.696-159.232l179.2-56.32c3.072-0.512 6.144-1.024 9.216-1.024 24.576 0 44.544 19.968 44.544 44.544v634.88c0.512 24.064-19.456 44.032-44.032 44.032zM424.448 665.6c0.512 0 1.024-0.512 1.536-0.512L160.768 748.032c-3.072 0.512-6.144 1.024-9.216 1.024-24.576 0-44.544-19.968-44.544-44.544v-634.88c0-24.576 19.968-44.544 44.544-44.544 3.072 0 6.144 0.512 9.216 1.024l180.736 53.248c-2.048 13.824-1.536 28.16 0 40.96 1.024 13.824 3.072 29.184 6.656 43.52l-174.08-43.52V653.8240000000001l222.208-59.392v-286.208c19.968 21.504 45.056 39.936 66.56 55.808V612.864c-0.512 24.576-16.384 45.568-38.4 52.736zM378.88 205.82399999999996h256v-213.504H378.88v213.504z m42.496-43.008v-128h170.496v128H421.376z m0 21.504H378.88v21.504h42.496v42.496c0 47.104 38.4 85.504 85.504 85.504s85.504-38.4 85.504-85.504v-42.496h42.496v-21.504h-85.504v64c0 23.552-19.456 42.496-42.496 42.496-23.552 0-42.496-19.456-42.496-42.496V184.32000000000005h-43.008zM506.88 77.82399999999996c-12.8 0-21.504 8.704-21.504 21.504s8.704 21.504 21.504 21.504 21.504-8.704 21.504-21.504-8.704-21.504-21.504-21.504z"  horiz-adv-x="1024" />

    
    <glyph glyph-name="vm-unknown" unicode="&#58946;" d="M512 779.5078125C293.6796875 779.5078125 116.4921875 602.3203125 116.4921875 384s177.1875-395.5078125 395.5078125-395.5078125 395.5078125 177.1875 395.5078125 395.5078125S730.3203125 779.5078125 512 779.5078125z m0-702.94921875c-169.8046875 0-307.44140625 138.1640625-307.44140625 307.44140625S342.1953125 691.44140625 512 691.44140625a307.44140625 307.44140625 0 1 0 0-614.8828125zM517.2734375 591.24609375c-40.60546875 0-73.30078125-12.12890625-97.55859375-35.33203125-24.78515625-23.73046875-36.9140625-56.42578125-36.9140625-97.03125 0-1.58203125 0-17.9296875 11.6015625-30.5859375 5.2734375-5.80078125 15.29296875-12.12890625 31.640625-12.12890625 31.640625 0 44.82421875 24.78515625 45.87890625 42.1875 0 17.40234375 3.1640625 30.5859375 9.4921875 39.0234375 3.69140625 5.2734375 11.07421875 12.65625 32.6953125 12.65625 12.65625 0 21.62109375-3.1640625 27.421875-8.4375 6.328125-6.328125 9.4921875-15.8203125 9.4921875-26.89453125 0-8.4375-3.1640625-16.875-9.4921875-24.2578125l-4.21875-5.2734375c-34.8046875-31.640625-54.31640625-53.26171875-61.69921875-68.02734375-7.91015625-15.29296875-11.6015625-33.22265625-11.6015625-55.8984375v-6.85546875c0-14.23828125 11.6015625-35.33203125 43.76953125-35.33203125 33.22265625 0 44.296875 22.1484375 45.87890625 35.33203125v6.85546875c0 8.96484375 1.58203125 16.875 5.80078125 24.78515625 3.69140625 7.3828125 8.96484375 13.7109375 15.8203125 19.51171875 22.1484375 19.51171875 37.96875 33.75 44.82421875 41.66015625 14.23828125 18.984375 21.62109375 42.71484375 21.62109375 70.6640625 0 34.8046875-11.6015625 62.75390625-34.8046875 83.3203125-23.203125 19.51171875-52.734375 30.05859375-89.6484375 30.05859375zM463.484375 219.46875a45.87890625 45.87890625 0 1 1 91.7578125 0 45.87890625 45.87890625 0 1 1-91.7578125 0z"  horiz-adv-x="1024" />

    
    <glyph glyph-name="vm-paused" unicode="&#58947;" d="M512.204 737.384c-193.733 0-352.292-158.535-352.292-352.29 0-193.734 158.559-352.293 352.292-352.293 193.757 0 352.293 158.559 352.293 352.293 0 193.754-158.536 352.29-352.293 352.29M477.007 244.19000000000005h-70.463V526.02h70.463v-281.83z m140.926 0H547.47V526.02h70.463v-281.83z"  horiz-adv-x="1024" />

    
    <glyph glyph-name="vm-suspended" unicode="&#58948;" d="M526.4 760.2C323 760.2 158.3 595.5 158.3 392.1S323 24 526.4 24 894.5 189.14999999999998 894.5 392.55s-164.7 367.65-368.1 367.65z m0-647.55c-154.35 0-279.9 125.1-279.9 279.9S372.05 672 526.4 672s279.9-125.1 279.9-279.9-125.1-279.45-279.9-279.45zM314.45 451.5h426.15v-91.35H314.45z"  horiz-adv-x="1024" />

    
    <glyph glyph-name="vm-savingstate" unicode="&#58949;" d="M640 608H384a32 32 0 1 0 0 64h256a32 32 0 0 0 0-64z m0-384H384a32 32 0 0 0-32 32V384a32 32 0 0 0 32 32h256a32 32 0 0 0 32-32v-128a32 32 0 0 0-32-32z m-224 64h192v64H416v-64z m320-192H288a64 64 0 0 0-64 64V608a64 64 0 0 0 64 64h128a32 32 0 0 0 32-32v-96h128v96a32 32 0 0 0 32 32h32a32 32 0 0 0 22.72-9.28l128-128A32 32 0 0 0 800 512v-352a64 64 0 0 0-64-64zM288 608v-448h448V498.88l-96 96V512a32 32 0 0 0-32-32H416a32 32 0 0 0-32 32v96h-96z"  horiz-adv-x="1024" />

    
    <glyph glyph-name="vm-restoringstate" unicode="&#58950;" d="M740.628125 636.2953125h-44.205v32.39625c0 51.21375-41.925 92.8959375-93.440625 92.8959375H420.3003125c-51.5146875 0-93.421875-41.9278125-93.421875-93.4603125v-31.831875h-44.206875c-72.045 0-130.640625-58.6153125-130.640625-130.659375v-370.5459375c0-72.0253125 58.595625-130.640625 130.640625-130.640625h457.9575c72.045 0 130.6425 58.6153125 130.6425 130.640625V505.6359375c0 72.045-58.5975 130.659375-130.6425 130.659375zM381.81875 668.128125c0 21.245625 17.2734375 38.499375 38.4815625 38.499375h182.68125c21.585 0 38.5003125-16.65 38.5003125-37.935v-32.39625H381.8196875V668.128125z m434.50875-533.03625c0-41.7375-33.9590625-75.6965625-75.6984375-75.6965625H282.6715625c-41.739375 0-75.6984375 33.9590625-75.6984375 75.6965625V505.6359375c0 41.7384375 33.9590625 75.6984375 75.6984375 75.6984375h457.9575c41.739375 0 75.6984375-33.96 75.6984375-75.6984375v-370.545zM630.0125 382.078125h-56.656875v56.67375c0 16.6125-13.599375 30.211875-30.2128125 30.211875h-62.9840625c-16.6125 0-30.211875-13.5975-30.211875-30.211875v-56.6746875h-56.655c-16.63125 0-30.2315625-13.5984375-30.2315625-30.2296875v-62.9465625c0-16.63125 13.599375-30.2315625 30.2315625-30.2315625h56.655v-56.675625c0-16.610625 13.599375-30.2109375 30.211875-30.2109375h62.9840625c16.6125 0 30.2128125 13.6003125 30.2128125 30.2109375v56.675625h56.6559375c16.63125 0 30.2475 13.6003125 30.2475 30.2315625v62.9465625c0 16.63125-13.6171875 30.2296875-30.2475 30.2296875z"  horiz-adv-x="1024" />

    
    <glyph glyph-name="storage--unknown-copy" unicode="&#59600;" d="M512 779.5078125C293.6796875 779.5078125 116.4921875 602.3203125 116.4921875 384s177.1875-395.5078125 395.5078125-395.5078125 395.5078125 177.1875 395.5078125 395.5078125S730.3203125 779.5078125 512 779.5078125z m0-702.94921875c-169.8046875 0-307.44140625 138.1640625-307.44140625 307.44140625S342.1953125 691.44140625 512 691.44140625a307.44140625 307.44140625 0 1 0 0-614.8828125zM517.2734375 591.24609375c-40.60546875 0-73.30078125-12.12890625-97.55859375-35.33203125-24.78515625-23.73046875-36.9140625-56.42578125-36.9140625-97.03125 0-1.58203125 0-17.9296875 11.6015625-30.5859375 5.2734375-5.80078125 15.29296875-12.12890625 31.640625-12.12890625 31.640625 0 44.82421875 24.78515625 45.87890625 42.1875 0 17.40234375 3.1640625 30.5859375 9.4921875 39.0234375 3.69140625 5.2734375 11.07421875 12.65625 32.6953125 12.65625 12.65625 0 21.62109375-3.1640625 27.421875-8.4375 6.328125-6.328125 9.4921875-15.8203125 9.4921875-26.89453125 0-8.4375-3.1640625-16.875-9.4921875-24.2578125l-4.21875-5.2734375c-34.8046875-31.640625-54.31640625-53.26171875-61.69921875-68.02734375-7.91015625-15.29296875-11.6015625-33.22265625-11.6015625-55.8984375v-6.85546875c0-14.23828125 11.6015625-35.33203125 43.76953125-35.33203125 33.22265625 0 44.296875 22.1484375 45.87890625 35.33203125v6.85546875c0 8.96484375 1.58203125 16.875 5.80078125 24.78515625 3.69140625 7.3828125 8.96484375 13.7109375 15.8203125 19.51171875 22.1484375 19.51171875 37.96875 33.75 44.82421875 41.66015625 14.23828125 18.984375 21.62109375 42.71484375 21.62109375 70.6640625 0 34.8046875-11.6015625 62.75390625-34.8046875 83.3203125-23.203125 19.51171875-52.734375 30.05859375-89.6484375 30.05859375zM463.484375 219.46875a45.87890625 45.87890625 0 1 1 91.7578125 0 45.87890625 45.87890625 0 1 1-91.7578125 0z"  horiz-adv-x="1024" />

    
    <glyph glyph-name="tc-imagelocked" unicode="&#59609;" d="M256 469.333h512v-426.666H256V469.333zM341.333 384v-256h341.334V384H341.333z m0 42.667H256v42.666h85.333v85.334c0 93.866 76.8 170.666 170.667 170.666s170.667-76.8 170.667-170.666v-85.334H768v-42.666H597.333v128C597.333 601.6 558.933 640 512 640s-85.333-38.4-85.333-85.333v-128h-85.334zM512 213.33299999999997c-25.6 0-42.667 17.067-42.667 42.667S486.4 298.66700000000003 512 298.66700000000003 554.667 281.6 554.667 256 537.6 213.33299999999997 512 213.33299999999997z"  horiz-adv-x="1024" />

    
    <glyph glyph-name="storage-imagelocked" unicode="&#58945;" d="M256 469.333h512v-426.666H256V469.333zM341.333 384v-256h341.334V384H341.333z m0 42.667H256v42.666h85.333v85.334c0 93.866 76.8 170.666 170.667 170.666s170.667-76.8 170.667-170.666v-85.334H768v-42.666H597.333v128C597.333 601.6 558.933 640 512 640s-85.333-38.4-85.333-85.333v-128h-85.334zM512 213.33299999999997c-25.6 0-42.667 17.067-42.667 42.667S486.4 298.66700000000003 512 298.66700000000003 554.667 281.6 554.667 256 537.6 213.33299999999997 512 213.33299999999997z"  horiz-adv-x="1024" />

    
    <glyph glyph-name="vm-waitforlaunch" unicode="&#58943;" d="M780.82171631 78.09942626999998H743.74285888V152.25714112000003c0 41.7137146-18.53942872 83.4274292-50.98342895 115.87142943l-55.61828613 55.61828614-27.80914307 27.80914307-9.26971435 4.63485717s-4.63485718 0-4.63485718 4.63485718c-4.63485718 4.63485718-9.26971435 13.90457153-9.26971436 23.17428589s4.63485718 18.53942872 9.26971436 23.17428589c0 0 0 4.63485718 4.63485718 4.63485718l13.90457153 9.26971435 4.63485717 9.26971435 18.53942872 18.53942872 60.25314331 55.61828613c32.44400024 27.80914307 46.34857177 69.52285766 46.34857177 111.23657226V689.90057373h37.07885743c18.53942872 0 37.07885742 13.90457153 37.07885742 27.80914307s-13.90457153 27.80914307-37.07885742 27.80914307H233.90856933c-18.53942872 0-37.07885742-13.90457153-37.07885741-27.80914307S210.73428344 689.90057373 233.90856933 689.90057373h37.07885743v-69.52285766c0-41.7137146 18.53942872-83.4274292 50.98342895-115.87142945l23.1742859-23.17428589 60.25314331-60.25314331 4.63485717-4.63485718 9.26971435-4.63485717 4.63485718-4.63485718c4.63485718-4.63485718 9.26971435-13.90457153 9.26971436-23.17428589v-9.26971435c0-4.63485718-4.63485718-13.90457153-9.26971436-18.53942872H419.30285644l-9.26971435-9.26971435-64.88800048-60.25314331-23.1742859-23.17428589c-32.44400024-27.80914307-50.98342896-69.52285766-50.98342896-115.87142945v-74.15771484h-41.71371459c-18.53942872 0-37.07885742-13.90457153-37.07885742-27.80914307s13.90457153-27.80914307 37.07885742-27.80914306h551.54800415c18.53942872 0 37.07885742 13.90457153 37.07885742 27.80914306 0 18.53942872-13.90457153 32.44400024-37.07885742 32.44400025zM326.60571289 152.25714112000003c0 27.80914307 13.90457153 55.61828614 32.44400024 74.15771484l64.88800049 64.88800048 50.98342896 46.34857178c4.63485718 9.26971435 4.63485718 13.90457153 9.26971435 23.17428589 0 9.26971435 4.63485718 13.90457153 4.63485718 23.17428589v23.17428589c0 4.63485718 0 9.26971435-4.63485718 13.90457153v4.63485718c-9.26971435 4.63485718-9.26971435 4.63485718-13.90457153 9.26971436L419.30285644 485.96685791 359.04971313 546.22000122c-23.17428589 18.53942872-32.44400024 46.34857177-32.44400024 74.15771485v69.52285766h366.15371704v-69.52285766c0-27.80914307-13.90457153-55.61828614-32.44400024-74.15771485l-74.15771485-69.52285766-27.80914306-27.80914307-4.63485718-4.63485718-4.63485718-4.63485717c-4.63485718-9.26971435-9.26971435-23.17428589-9.26971435-32.44400025v-18.53942871c0-9.26971435 0-13.90457153 4.63485717-23.17428589 0-13.90457153 4.63485718-32.44400024 13.90457154-41.7137146l23.17428588-23.17428589 74.15771485-74.15771484c23.17428589-18.53942872 32.44400024-46.34857177 32.44400025-74.15771484v-74.15771485H326.60571289V152.25714112000003zM535.17428589 258.8588562c-9.26971435 9.26971435-27.80914307 9.26971435-41.7137146 0l-69.52285767-60.25314331c-13.90457153-9.26971435-23.17428589-27.80914307-23.17428589-46.34857177v-32.44400025h222.47314454V152.25714112000003c0 13.90457153-9.26971435 32.44400024-23.17428589 46.34857177L535.17428589 258.8588562z"  horiz-adv-x="1024" />

    
    <glyph glyph-name="vm-unassigned" unicode="&#58942;" d="M851.456 563.2h-307.2l19.968 25.088c1.536 2.048 3.072 4.608 4.096 6.656 12.8 28.672 24.064 88.064-14.848 127.488-44.544 44.032-122.368 31.744-161.792-20.992L295.936 584.704C279.04 573.952 224.256 532.992 194.56 496.64l-100.864-1.024c-16.384-1.024-29.696-14.848-29.184-31.232v-306.688c0-16.896 13.312-30.72 30.208-31.232l117.76-0.512 259.072-86.528c3.072-1.536 32.256-15.36 65.024-15.36 38.912 0 69.632 18.944 87.04 53.76 4.096 9.216 6.144 17.92 7.68 26.112 22.528 0.512 60.928 11.264 78.848 71.68 6.144 23.04 6.656 44.544 1.536 62.976 22.528 12.288 36.864 33.28 40.96 60.928 2.56 17.92 3.584 38.912-2.56 58.368H849.92c55.296 0 111.104 30.72 111.104 98.816-0.512 79.36-70.656 103.936-109.568 106.496z m-3.584-141.824h-231.424c-17.408 0-31.232-13.824-31.232-31.232s13.824-31.232 31.232-31.232c52.736 0 67.072-9.728 70.656-14.336 4.608-5.12 5.632-16.896 3.072-35.84-1.024-6.656-2.56-18.432-27.648-18.432-3.584 0-6.656 0.512-7.168 0.512-16.896 2.56-32.768-8.704-36.352-25.088-3.072-16.896 8.192-33.28 25.088-36.352 2.56-0.512 3.584-1.536 4.608-3.072 3.072-5.12 5.12-16.384 0.512-32.768-8.192-26.112-17.92-26.112-20.992-26.112-6.144 0.512-11.776 2.048-16.896 4.608-11.776 7.168-27.136 6.144-37.376-3.072-10.24-9.216-13.312-24.064-7.68-36.864 3.584-8.704 3.584-18.432 0-27.136-6.144-12.8-14.848-17.92-30.208-17.92-18.944 0-37.888 8.704-41.984 10.752l-267.776 89.088c-2.56 1.024-5.632 1.536-8.704 1.536H126.464V434.688l85.504 0.512c10.24 0.512 20.48 10.752 26.112 19.456 14.848 24.576 66.56 61.952 95.232 79.36 3.072 2.048 5.632 4.096 7.68 6.656l100.352 121.344c18.432 24.576 50.176 34.304 68.608 15.872 15.36-15.36 6.656-45.056 3.072-54.272L454.656 551.424c-7.68-9.216-9.216-22.528-4.096-33.28 5.12-10.752 16.384-17.92 28.16-17.92h370.176c8.192-0.512 48.64-5.12 48.64-43.008 0.512-31.232-30.208-35.84-49.664-35.84zM223.232 126.46400000000006c17.408 0 32.256 14.336 32.256 32.256V480.256c0 17.408-14.336 32.256-32.256 32.256s-32.256-14.336-32.256-32.256V158.72000000000003c0-17.92 14.336-32.256 32.256-32.256z"  horiz-adv-x="1024" />

    
    <glyph glyph-name="host-unassigned" unicode="&#59603;" d="M851.456 563.2h-307.2l19.968 25.088c1.536 2.048 3.072 4.608 4.096 6.656 12.8 28.672 24.064 88.064-14.848 127.488-44.544 44.032-122.368 31.744-161.792-20.992L295.936 584.704C279.04 573.952 224.256 532.992 194.56 496.64l-100.864-1.024c-16.384-1.024-29.696-14.848-29.184-31.232v-306.688c0-16.896 13.312-30.72 30.208-31.232l117.76-0.512 259.072-86.528c3.072-1.536 32.256-15.36 65.024-15.36 38.912 0 69.632 18.944 87.04 53.76 4.096 9.216 6.144 17.92 7.68 26.112 22.528 0.512 60.928 11.264 78.848 71.68 6.144 23.04 6.656 44.544 1.536 62.976 22.528 12.288 36.864 33.28 40.96 60.928 2.56 17.92 3.584 38.912-2.56 58.368H849.92c55.296 0 111.104 30.72 111.104 98.816-0.512 79.36-70.656 103.936-109.568 106.496z m-3.584-141.824h-231.424c-17.408 0-31.232-13.824-31.232-31.232s13.824-31.232 31.232-31.232c52.736 0 67.072-9.728 70.656-14.336 4.608-5.12 5.632-16.896 3.072-35.84-1.024-6.656-2.56-18.432-27.648-18.432-3.584 0-6.656 0.512-7.168 0.512-16.896 2.56-32.768-8.704-36.352-25.088-3.072-16.896 8.192-33.28 25.088-36.352 2.56-0.512 3.584-1.536 4.608-3.072 3.072-5.12 5.12-16.384 0.512-32.768-8.192-26.112-17.92-26.112-20.992-26.112-6.144 0.512-11.776 2.048-16.896 4.608-11.776 7.168-27.136 6.144-37.376-3.072-10.24-9.216-13.312-24.064-7.68-36.864 3.584-8.704 3.584-18.432 0-27.136-6.144-12.8-14.848-17.92-30.208-17.92-18.944 0-37.888 8.704-41.984 10.752l-267.776 89.088c-2.56 1.024-5.632 1.536-8.704 1.536H126.464V434.688l85.504 0.512c10.24 0.512 20.48 10.752 26.112 19.456 14.848 24.576 66.56 61.952 95.232 79.36 3.072 2.048 5.632 4.096 7.68 6.656l100.352 121.344c18.432 24.576 50.176 34.304 68.608 15.872 15.36-15.36 6.656-45.056 3.072-54.272L454.656 551.424c-7.68-9.216-9.216-22.528-4.096-33.28 5.12-10.752 16.384-17.92 28.16-17.92h370.176c8.192-0.512 48.64-5.12 48.64-43.008 0.512-31.232-30.208-35.84-49.664-35.84zM223.232 126.46400000000006c17.408 0 32.256 14.336 32.256 32.256V480.256c0 17.408-14.336 32.256-32.256 32.256s-32.256-14.336-32.256-32.256V158.72000000000003c0-17.92 14.336-32.256 32.256-32.256z"  horiz-adv-x="1024" />

    
    <glyph glyph-name="storage-uninitialized" unicode="&#59606;" d="M515.584 495.616m-297.984 0a297.984 297.984 0 1 1 595.968 0 297.984 297.984 0 1 1-595.968 0ZM345.088 272.384m-297.984 0a297.984 297.984 0 1 1 595.968 0 297.984 297.984 0 1 1-595.968 0ZM678.912 272.384m-297.984 0a297.984 297.984 0 1 1 595.968 0 297.984 297.984 0 1 1-595.968 0Z"  horiz-adv-x="1024" />

    
    <glyph glyph-name="storage-initializing-copy" unicode="&#59614;" d="M515.584 495.616m-297.984 0a297.984 297.984 0 1 1 595.968 0 297.984 297.984 0 1 1-595.968 0ZM345.088 272.384m-297.984 0a297.984 297.984 0 1 1 595.968 0 297.984 297.984 0 1 1-595.968 0ZM678.912 272.384m-297.984 0a297.984 297.984 0 1 1 595.968 0 297.984 297.984 0 1 1-595.968 0Z"  horiz-adv-x="1024" />

    
    <glyph glyph-name="host-initializing" unicode="&#58939;" d="M515.584 495.616m-297.984 0a297.984 297.984 0 1 1 595.968 0 297.984 297.984 0 1 1-595.968 0ZM345.088 272.384m-297.984 0a297.984 297.984 0 1 1 595.968 0 297.984 297.984 0 1 1-595.968 0ZM678.912 272.384m-297.984 0a297.984 297.984 0 1 1 595.968 0 297.984 297.984 0 1 1-595.968 0Z"  horiz-adv-x="1024" />

    
    <glyph glyph-name="host-kdumping" unicode="&#58940;" d="M502.784 311.808l179.712 248.32h260.608v-248.32h-440.32zM928.256 311.808H67.584v-242.688h918.016v242.688h-57.344z m-3.584-182.272H128.512V250.88h796.672v-121.344zM650.752 720.384L74.24 503.296 20.48 482.816 105.472 256l53.76 19.968 576.512 217.6 53.76 19.968-85.504 226.816-53.248-19.968zM711.68 549.376l-570.88-215.04-42.496 113.152 570.88 215.04c0.512 0 42.496-113.152 42.496-113.152zM832.512 470.528c32.256 0 53.76-21.504 53.76-53.76s-21.504-53.76-53.76-53.76-53.76 21.504-53.76 53.76 22.016 53.76 53.76 53.76z m0 56.32c-58.368 0-109.568-51.2-109.568-109.568s51.2-109.568 109.568-109.568c58.368 0 109.568 51.2 109.568 109.568 1.024 57.856-50.688 109.568-109.568 109.568zM712.192 549.376L660.48 529.9200000000001l-64.512-89.088 140.288 52.736 36.352 13.824c-29.184-19.968-49.664-53.76-49.664-90.624 0-48.128 34.304-91.136 78.848-104.96h61.44c44.544 13.824 78.848 56.832 78.848 104.96 0 58.368-51.2 109.568-109.568 109.568-15.36 0-30.208-3.584-44.032-10.24l-16.384 43.52h-65.024l5.12-10.24z m120.832-78.848c32.256 0 53.76-21.504 53.76-53.76s-21.504-53.76-53.76-53.76-53.76 21.504-53.76 53.76 21.504 53.76 53.76 53.76z"  horiz-adv-x="1024" />

    
    <glyph glyph-name="host-installfailed" unicode="&#58941;" d="M82.432 611.328l5.12-682.496h853.504l-5.12 682.496H82.432z m780.8-612.352h-691.2V530.944h691.2v-531.968zM250.368 710.144L176.128 611.328H82.432l113.664 171.008h626.176l113.664-171.008h-89.088L773.12 710.144zM595.456 351.744c7.168-7.168 7.168-18.944 0-26.624L455.68 185.34400000000005c-7.168-7.168-18.944-7.168-26.624 0-7.168 7.168-7.168 18.944 0 26.624l139.776 139.776c7.68 7.168 19.456 7.168 26.624 0zM595.456 185.34400000000005c-7.168-7.168-18.944-7.168-26.624 0l-139.776 139.776c-7.168 7.168-7.168 18.944 0 26.624 7.168 7.168 18.944 7.168 26.624 0l139.776-139.776c7.168-7.68 7.168-19.456 0-26.624zM314.88 187.904c0-10.24 8.192-18.432 18.432-18.432s18.432 8.192 18.432 18.432-8.192 18.432-18.432 18.432c-9.728 0.512-18.432-8.192-18.432-18.432zM381.44 108.03200000000004c0-10.24 8.192-18.432 18.432-18.432s18.432 8.192 18.432 18.432-8.192 18.432-18.432 18.432c-10.24 0.512-18.432-8.192-18.432-18.432zM511.488 481.792c-118.272 0-214.016-95.744-214.016-214.016 0-31.232 6.656-61.44 18.944-88.064l33.792 16.384c-9.728 22.016-15.36 46.592-15.36 72.192 0 97.28 78.848 176.64 176.64 176.64s176.128-78.848 176.128-176.64S608.768 92.15999999999997 511.488 92.15999999999997c-37.376 0-72.192 11.776-100.352 31.232l-23.552-26.112c0.512-0.512 1.024-1.024 1.024-1.536s0-1.536-0.512-1.536c34.816-24.576 77.312-39.424 123.392-39.424 118.272 0 214.016 95.744 214.016 214.016S629.76 481.792 511.488 481.792z"  horiz-adv-x="1024" />

    
    <glyph glyph-name="host-error" unicode="&#58894;" d="M662.38085938 545.63085938c14.0625-14.0625 14.0625-36.82617188-1e-8-50.88867188L392.29296875 224.65429687000005c-14.0625-14.0625-36.82617188-14.0625-50.88867188 1e-8s-14.0625 36.82617188 0 50.88867187l270.00000001 270c14.0625 14.15039063 36.9140625 14.15039063 50.97656249 0.08789063zM662.38085938 224.65429687000005c-14.0625-14.0625-36.82617188-14.0625-50.88867188 1e-8L341.40429687 494.65429688c-14.0625 14.0625-14.0625 36.82617188 1e-8 50.88867187s36.82617188 14.0625 50.88867187 0L662.29296875 275.54296875c14.0625-14.0625 14.0625-36.82617188 0.08789063-50.88867188zM157.36132812 229.83984375m-35.94726562 0a35.94726563 35.94726563 0 1 1 71.89453125 0 35.94726563 35.94726563 0 1 1-71.89453125 0ZM284.890625 75.85546875m-35.94726563 0a35.94726563 35.94726563 0 1 1 71.89453126 0 35.94726563 35.94726563 0 1 1-71.89453125 0ZM500.75 796.55859375C272.84960937 796.55859375 88.19140625 611.90039063 88.19140625 384c0-60.64453125 13.09570313-118.30078125 36.65039063-170.15625l65.21484374 31.11328125C171.07226562 287.49609375 160.4375 334.51757812000005 160.4375 384c0 187.91015625 152.31445313 340.3125 340.3125 340.3125S840.97460938 571.99804688 840.97460938 384 688.66015625 43.77539062000005 500.75 43.77539062000005c-71.98242188 0-138.77929688 22.32421875-193.7109375 60.46875001l-45-50.2734375c1.31835938-0.61523438 2.19726563-1.84570313 2.19726563-3.1640625s0.26367188-2.8125-1.0546875-3.42773438c67.41210938-47.90039063 148.7109375-75.76171875 237.65624999-75.76171875 227.8125 0 412.55859375 184.65820313 412.55859376 412.55859375S728.5625 796.55859375 500.75 796.55859375z"  horiz-adv-x="1024" />

    
    <glyph glyph-name="host-nonoperational" unicode="&#58938;" d="M553.91744 832.62464l38.27712-42.7008-287.83104-258.02752-38.27712 42.7008zM259.7632 777.38496l34.72896 45.63456 303.95392-231.31136-34.72384-45.63456zM800.768 487.936h-2.048c-16.896 0-30.208-4.608-43.52-12.8-11.776 33.792-40.96 57.856-78.848 57.856-16.896 0-32.768-4.608-46.08-12.8-11.776 33.792-40.96 57.856-78.848 57.856-14.848 0-28.672-3.584-40.448-10.24v87.04c0 47.104-35.84 85.504-83.456 85.504s-86.016-38.4-86.016-85.504V322.55999999999995l-52.224 52.224c-33.792 33.28-93.184 28.672-121.856 0-28.672-28.672-47.616-86.528-6.656-127.488l240.64-239.104c5.12-5.12 10.24-9.216 16.384-12.288 44.032-35.84 94.208-56.832 200.704-56.832 242.688 0 265.216 131.072 265.216 292.864V402.432c-0.512 47.104-35.328 85.504-82.944 85.504z m37.376-256.512c0-136.704-0.512-247.808-220.16-247.808-93.184 0-148.48 20.48-190.976 62.464l-227.84 226.304c-19.968 19.968-14.848 46.08 1.536 62.464 16.384 16.384 46.592 16.896 62.976 1.024 0 0 39.936-39.936 74.24-73.728 26.112-26.112 49.152-48.64 49.152-48.64V645.6320000000001c0 22.528 18.432 40.448 40.96 40.448s37.888-17.92 37.888-40.448v-274.944c-0.512-1.536-0.512-3.072-0.512-4.608 0-12.288 10.24-22.528 22.528-22.528 12.288 0 22.528 10.24 22.528 22.528 0 1.536 0 3.072-0.512 4.608h0.512v112.64c0 22.528 16.384 40.448 38.912 40.448 0 0 39.936 0.512 39.936-40.448v-148.48h0.512c-0.512-1.536-0.512-3.072-0.512-4.608 0-12.288 10.24-22.528 22.528-22.528 12.288 0 22.528 10.24 22.528 22.528 0 1.536 0 3.072-0.512 4.608h0.512V438.272c0 22.528 15.872 40.448 38.4 40.448 0 0 40.96-2.56 40.96-40.448v-130.56h0.512c-0.512-1.536-0.512-3.072-0.512-4.608 0-12.288 10.24-22.528 22.528-22.528 12.288 0 22.016 10.24 22.016 22.528 0 1.536 0 3.072-0.512 4.608h0.512V397.312c0 22.528 16.896 40.448 39.424 40.448 0 0 39.424 1.536 39.424-40.448 1.024 0 1.024-129.536 1.024-165.888z"  horiz-adv-x="1024" />

    
    <glyph glyph-name="vm-migratingTo" unicode="&#58934;" d="M217.25 130.875L343.25 130.875l0-41.625A42.1875 42.1875 0 0 1 385.71874999 46.5l421.875 0A42.1875 42.1875 0 0 1 849.5 89.25000001000001l0 506.24999999A42.1875 42.1875 0 0 1 806.75 637.125L680.75 637.125l0 42.1875a42.1875 42.1875 0 0 1-42.18749999 42.1875l-421.875 0a42.1875 42.1875 0 0 1-42.18750001-42.18750001L174.5 173.0625a42.1875 42.1875 0 0 1 42.75-42.1875z m0 547.59375l421.875 0L639.125 552.75a21.09375 21.09375 0 0 1 41.625 0l0 42.1875L806.74999999 594.9375 806.75 88.6875l-421.875 0 0 42.1875 253.125 0A42.1875 42.1875 0 0 1 680.75 173.34375L680.75 299.625a21.09375 21.09375 0 0 1-42.1875 1e-8L638.56250001 173.34375l-421.875 0zM217.25000001 727.96875l421.875 0a49.5 49.5 0 0 0 49.21874999-49.21875l0-35.15625L806.75 643.59375a49.21875 49.21875 0 0 0 49.21875-48.9375l0-506.24999999a49.21875 49.21875 0 0 0-49.21875001-48.37500001l-421.875 0a49.21875 49.21875 0 0 0-49.21874999 49.21875l0 34.875-119.25 0a49.21875 49.21875 0 0 0-49.21875 49.21875l0 506.24999999a49.21875 49.21875 0 0 0 50.06250001 48.37500001z m590.62499998-675a35.15625 35.15625 0 0 1 34.03125001 36.28125001l0 506.24999999a35.15625 35.15625 0 0 1-35.15625 34.875l-133.3125 0 0 49.21875a35.15625 35.15625 0 0 1-35.15625 35.15625001l-421.87499999-1e-8a35.15625 35.15625 0 0 1-35.15625001-35.15625001l0-506.24999999a35.15625 35.15625 0 0 1 35.15625-35.15625L350.5625 138.1875l0-48.9375a35.15625 35.15625 0 0 1 35.15625-35.15625001z m-597.65624999 632.8125L645.3125 685.78125 645.3125 552.75a14.0625 14.0625 0 0 1 14.0625-14.0625 14.0625 14.0625 0 0 1 14.0625 14.0625l0 49.21875 140.625 0L814.0625 82.21875l-435.375 0 0 56.25L638.28125 138.46875a35.15625 35.15625 0 0 1 35.15625 35.15625L673.4375 299.625a14.0625 14.0625 0 0 1-14.06250001 14.0625 14.0625 14.0625 0 0 1-14.06249999-14.06249999L645.3125 166.31250001l-435.09375-1e-8z m421.875-14.0625l-407.8125 0L224.28125001 180.375 631.25000001 180.375 631.25000001 299.625a28.125 28.125 0 0 0 56.24999999 0L687.5 173.34375a49.5 49.5 0 0 0-49.21875-49.21875l-245.53125 0 0-28.125L799.71875 96l-1e-8 491.625-112.49999999 0L687.21875 552.75a28.125 28.125 0 0 0-56.25 0zM394.4375 405.09375L701.5625 405.09375a21.09375 21.09375 0 1 1 0 41.90625l-307.125 0L483.875 537.5625a21.09375 21.09375 0 0 1 0 29.8125 20.8125 20.8125 0 0 1-29.53125 0l-126.5625-126.5625a21.09375 21.09375 0 0 1 0-29.8125L455.75 285a21.09375 21.09375 0 0 1 28.125 29.8125zM469.8125 576.375a23.90625 23.90625 0 0 0 16.875-40.78125l-84.375-85.78125L701.5625 449.8125a23.90625 23.90625 0 1 0 0-47.53125001l-300.375 1e-8 84.375-84.375a24.1875 24.1875 0 0 0 7.03125001-16.875 23.0625 23.0625 0 0 0-7.03125001-16.875 24.46875 24.46875 0 0 0-33.75 0l-126.28125 126a23.90625 23.90625 0 0 0 0 33.75l126.5625 126.5625a23.34375 23.34375 0 0 0 17.71875 5.90625z m231.75-168.75a18.5625 18.5625 0 0 1 18.28125 18.28125 18.5625 18.5625 0 0 1-18.28125 18.28125l-313.87500001 0 4.78125 4.78125 91.40625001 90.5625a18.28125 18.28125 0 0 1 0 25.875 18.28125 18.28125 0 0 1-25.59375 0l-126.5625-126.5625a18.28125 18.28125 0 0 1 0-25.59375L455.75 286.96875a18.5625 18.5625 0 0 1 25.875 0 18 18 0 0 1 0 25.59375L386.5625 407.90625z"  horiz-adv-x="1024" />

    
    <glyph glyph-name="vm-rebootinprogress" unicode="&#59597;" d="M585.93914487 801.87828974c-225.59210513 0-408.55263162-182.96052649-408.55263163-408.55263163 0-28.42105298 2.88651325-60.39473675 8.4375-87.26151324 20.42763162 3.77467136 88.14967136 28.42105298 102.13815812 32.86184188-3.10855297 17.54111838-4.88486838 35.74835513-4.88486838 54.17763163 0 167.41776325 135.66611838 303.08388162 303.08388162 303.08388162s303.08388162-135.66611838 303.0838808-303.08388162-135.66611838-303.08388162-303.0838808-303.08388163c-34.19407864 0-67.05592136 5.77302649-97.6973692 16.20888163-0.44407864-0.88815811-35.30427649-74.38322351-41.74342053-97.03125 43.51973676-15.76480298 90.3700654-24.42434189 139.44078973-24.42434189 225.59210513 0 408.55263162 182.96052649 408.5526308 408.55263162s-183.1825654 408.55263162-408.77467053 408.55263162zM96.7861846 297.40460513000005l294.42434189 78.37993461L292.18092136 170.84210513000005z"  horiz-adv-x="1112" />

    
    <glyph glyph-name="host-reboot" unicode="&#58933;" d="M585.93914487 801.87828974c-225.59210513 0-408.55263162-182.96052649-408.55263163-408.55263163 0-28.42105298 2.88651325-60.39473675 8.4375-87.26151324 20.42763162 3.77467136 88.14967136 28.42105298 102.13815812 32.86184188-3.10855297 17.54111838-4.88486838 35.74835513-4.88486838 54.17763163 0 167.41776325 135.66611838 303.08388162 303.08388162 303.08388162s303.08388162-135.66611838 303.0838808-303.08388162-135.66611838-303.08388162-303.0838808-303.08388163c-34.19407864 0-67.05592136 5.77302649-97.6973692 16.20888163-0.44407864-0.88815811-35.30427649-74.38322351-41.74342053-97.03125 43.51973676-15.76480298 90.3700654-24.42434189 139.44078973-24.42434189 225.59210513 0 408.55263162 182.96052649 408.5526308 408.55263162s-183.1825654 408.55263162-408.77467053 408.55263162zM96.7861846 297.40460513000005l294.42434189 78.37993461L292.18092136 170.84210513000005z"  horiz-adv-x="1112" />

    
    <glyph glyph-name="tc-connecting-copy" unicode="&#59608;" d="M357.376 423.424h306.176v-76.8H357.376zM200.704 385.536C200.704 473.6 269.312 542.72 357.888 542.72h114.688V614.912H357.376c-126.464 0-229.888-103.424-229.888-229.888s103.424-229.888 229.888-229.888h114.688v72.704H357.376c-88.064 0.512-156.672 69.632-156.672 157.696zM815.616 345.6c24.576-4.608 46.08-16.896 66.048-31.744 7.68 22.528 11.776 46.592 11.776 71.68 0 126.464-103.424 229.888-229.888 229.888h-114.688V542.72h114.688c88.064 0 156.672-69.12 156.672-157.184 0.512-13.824-1.536-27.136-4.608-39.936zM588.8 228.35199999999998h-39.936v-72.704h37.888c-2.048 23.552 1.024 47.616 2.048 72.704zM751.616 302.592c58.368 0 105.984-47.616 105.984-105.984s-47.616-105.984-105.984-105.984-105.984 47.616-105.984 105.984 48.128 105.984 105.984 105.984m0 35.328c-77.824 0-141.312-63.488-141.312-141.312s63.488-141.312 141.312-141.312 141.312 63.488 141.312 141.312S829.44 337.91999999999996 751.616 337.91999999999996zM769.536 214.52800000000002v52.736h-35.328V179.20000000000005H822.272v35.328h-52.736z"  horiz-adv-x="1024" />

    
    <glyph glyph-name="host-connecting" unicode="&#58932;" d="M357.376 423.424h306.176v-76.8H357.376zM200.704 385.536C200.704 473.6 269.312 542.72 357.888 542.72h114.688V614.912H357.376c-126.464 0-229.888-103.424-229.888-229.888s103.424-229.888 229.888-229.888h114.688v72.704H357.376c-88.064 0.512-156.672 69.632-156.672 157.696zM815.616 345.6c24.576-4.608 46.08-16.896 66.048-31.744 7.68 22.528 11.776 46.592 11.776 71.68 0 126.464-103.424 229.888-229.888 229.888h-114.688V542.72h114.688c88.064 0 156.672-69.12 156.672-157.184 0.512-13.824-1.536-27.136-4.608-39.936zM588.8 228.35199999999998h-39.936v-72.704h37.888c-2.048 23.552 1.024 47.616 2.048 72.704zM751.616 302.592c58.368 0 105.984-47.616 105.984-105.984s-47.616-105.984-105.984-105.984-105.984 47.616-105.984 105.984 48.128 105.984 105.984 105.984m0 35.328c-77.824 0-141.312-63.488-141.312-141.312s63.488-141.312 141.312-141.312 141.312 63.488 141.312 141.312S829.44 337.91999999999996 751.616 337.91999999999996zM769.536 214.52800000000002v52.736h-35.328V179.20000000000005H822.272v35.328h-52.736z"  horiz-adv-x="1024" />

    
    <glyph glyph-name="vm-migratingfrom" unicode="&#58929;" d="M806.75 637.125H680.75V678.75A42.1875 42.1875 0 0 1 638.28125 721.5h-421.875A42.1875 42.1875 0 0 1 174.5 678.75v-506.25A42.1875 42.1875 0 0 1 217.25 130.875H343.25v-42.1875a42.1875 42.1875 0 0 1 42.1875-42.1875h421.875a42.1875 42.1875 0 0 1 42.1875 42.1875v506.25A42.1875 42.1875 0 0 1 806.75 637.125z m0-547.59375h-421.875V215.25A21.09375 21.09375 0 0 1 343.25 215.25v-42.1875H217.25v506.25h421.875V637.125h-253.125A42.1875 42.1875 0 0 1 343.25 594.65625V468.375a21.09375 21.09375 0 0 1 42.1875 0V594.65625h421.875zM806.75 40.03125h-421.875a49.5 49.5 0 0 0-49.21875 49.21875v35.15625H217.25a49.21875 49.21875 0 0 0-49.21875 48.9375v506.25a49.21875 49.21875 0 0 0 49.21875 48.375h421.875a49.21875 49.21875 0 0 0 49.21875-49.21875v-34.875h119.25a49.21875 49.21875 0 0 0 49.21875-49.21875v-506.25a49.21875 49.21875 0 0 0-50.0625-48.375z m-590.625 675a35.15625 35.15625 0 0 1-34.03125-36.28125v-506.25a35.15625 35.15625 0 0 1 35.15625-34.875h133.3125v-49.21875a35.15625 35.15625 0 0 1 35.15625-35.15625h421.875a35.15625 35.15625 0 0 1 35.15625 35.15625v506.25a35.15625 35.15625 0 0 1-35.15625 35.15625h-134.15625V678.75a35.15625 35.15625 0 0 1-35.15625 35.15625z m597.65625-632.8125H378.6875V215.25a14.0625 14.0625 0 0 1-14.0625 14.0625 14.0625 14.0625 0 0 1-14.0625-14.0625v-49.21875h-140.625V685.78125h435.375v-56.25h-259.59375a35.15625 35.15625 0 0 1-35.15625-35.15625V468.375a14.0625 14.0625 0 0 1 14.0625-14.0625 14.0625 14.0625 0 0 1 14.0625 14.0625V601.6875h435.09375z m-421.875 14.0625h407.8125V587.625H392.75V468.375a28.125 28.125 0 0 0-56.25 0V594.65625a49.5 49.5 0 0 0 49.21875 49.21875h245.53125v28.125H224.28125v-491.625h112.5V215.25a28.125 28.125 0 0 0 56.25 0zM629.5625 362.90625H322.4375a21.09375 21.09375 0 1 1 0-41.90625h307.125L540.125 230.4375a21.09375 21.09375 0 0 1 0-29.8125 20.8125 20.8125 0 0 1 29.53125 0l126.5625 126.5625a21.09375 21.09375 0 0 1 0 29.8125L568.25 483a21.09375 21.09375 0 0 1-28.125-29.8125zM554.1875 191.625a23.90625 23.90625 0 0 0-16.875 40.78125l84.375 85.78125H322.4375a23.90625 23.90625 0 1 0 0 47.53125h300.375l-84.375 84.375a24.1875 24.1875 0 0 0-7.03125 16.875 23.0625 23.0625 0 0 0 7.03125 16.875 24.46875 24.46875 0 0 0 33.75 0l126.28125-126a23.90625 23.90625 0 0 0 0-33.75l-126.5625-126.5625a23.34375 23.34375 0 0 0-17.71875-5.90625z m-231.75 168.75a18.5625 18.5625 0 0 1-18.28125-18.28125 18.5625 18.5625 0 0 1 18.28125-18.28125h313.875l-4.78125-4.78125L540.125 228.46875a18.28125 18.28125 0 0 1 0-25.875 18.28125 18.28125 0 0 1 25.59375 0l126.5625 126.5625a18.28125 18.28125 0 0 1 0 25.59375L568.25 481.03125a18.5625 18.5625 0 0 1-25.875 0 18 18 0 0 1 0-25.59375l95.0625-95.34375z"  horiz-adv-x="1024" />

    
    <glyph glyph-name="host-pendingapproval" unicode="&#58931;" d="M600.576 64H216.064c-17.92 0-32.256-14.336-32.256-32.256s14.336-32.256 32.256-32.256h398.848c-8.704 20.48-13.824 41.984-14.336 64.512zM451.072 411.136c16.384-7.168 34.816 0.512 41.984 16.384 7.168 16.384-0.512 34.816-16.384 41.984C433.152 488.96 404.48 531.9680000000001 404.48 580.096c0 66.56 54.272 120.832 120.832 120.832s120.832-54.272 120.832-120.832c0-50.176-30.208-94.208-76.8-112.64-16.384-6.656-24.576-25.088-17.92-41.472 5.12-12.8 16.896-20.48 29.696-20.48 4.096 0 8.192 0.512 11.776 2.048 34.304 13.312 63.488 36.352 84.48 66.56 21.504 31.232 32.768 67.584 32.768 105.472 0 101.888-82.944 184.832-184.832 184.832-101.888 0-184.832-82.944-184.832-184.832C340.48 506.88 384 440.32 451.072 411.136zM769.536 264.70399999999995c0.512 0 1.024 0 1.536-0.512h2.56c23.552 2.56 47.616 3.072 71.168 3.072v16.896c0 24.576-19.968 44.032-44.032 44.032h-184.832c-17.92 0-32.256-14.336-32.256-32.256s14.336-32.256 32.256-32.256h143.36c3.072 1.536 6.656 1.536 10.24 1.024zM619.52 168.96000000000004H243.712v95.232h170.496c17.92 0 32.256 14.336 32.256 32.256s-14.336 32.256-32.256 32.256H223.744c-24.576 0-44.032-19.968-44.032-44.032v-135.168c0-24.576 19.968-44.032 44.032-44.032h379.392c3.072 21.504 9.216 42.496 16.384 63.488zM416.768 270.84799999999996c-3.584 0-7.68 0.512-10.752 2.048-16.384 6.144-25.088 24.576-18.944 40.96l49.664 136.192c6.144 16.384 24.576 25.088 40.96 18.944 16.384-6.144 25.088-24.576 18.944-40.96L446.976 291.84000000000003c-4.608-12.8-16.896-20.992-30.208-20.992z m189.952-6.144c-14.848 0-28.16 10.752-31.232 25.6L547.84 431.616c-3.584 17.408 7.68 34.304 25.088 37.376 17.408 3.584 34.304-7.68 37.376-25.088l27.648-141.312c3.584-17.408-7.68-34.304-25.088-37.376-2.048-0.512-4.096-0.512-6.144-0.512zM779.264 198.65599999999995c64 0 116.224-52.224 116.224-116.224s-52.224-116.224-116.224-116.224-116.224 52.224-116.224 116.224 52.224 116.224 116.224 116.224m0 38.4c-84.992 0-154.624-69.632-154.624-154.624s69.632-154.624 154.624-154.624 154.624 69.632 154.624 154.624-69.632 154.624-154.624 154.624zM798.72 101.88800000000003v57.856h-38.912v-96.768h96.768v38.912H798.72z"  horiz-adv-x="1024" />

    
    <glyph glyph-name="host-installing" unicode="&#58928;" d="M128.78333333 605.13333333l4.5-599.85h750.15l-4.5 599.85H128.78333333z m686.25-538.2h-607.5V534.48333333h607.5v-467.55zM276.38333333 691.98333333L211.13333333 605.13333333H128.78333333l99.9 150.3h550.35l99.9-150.3h-78.3L735.83333333 691.98333333zM581.48333333 301.38333333s-41.4-10.8-70.2-58.95c1.8-0.45 76.5-76.05 76.5-76.05 13.5-13.05 35.1-13.05 48.6 0l19.35 18.9c13.5 13.05 13.5 33.75 0 46.8l-74.25 69.3z m33.75-121.95c-3.6-3.15-9-3.15-12.15 0l-62.1 60.3c-3.6 3.15-3.6 8.55 0 11.7 3.6 3.15 9 3.15 12.15 0l62.1-60.3c3.15-2.7 3.15-8.1 0-11.7z m27 26.55c-3.6-3.15-9-3.15-12.15 0l-62.1 60.3c-3.6 3.15-3.6 8.55 0 11.7 3.6 3.15 9 3.15 12.15 0l62.1-60.3c3.6-3.15 3.6-8.1 0-11.7z m-217.35 171.45l50.4-50.4 24.3 23.85L448.73333333 400.83333333l12.15 11.7-67.5 65.7-48.6-46.8 67.95-65.7 12.15 11.7zM584.18333333 337.38333333c1.8-0.45 3.6-1.35 5.4-1.8 9-2.7 18.9-3.6 27.9-3.15 17.1 1.35 33.75 8.55 46.8 21.6 15.3 15.3 22.5 36 21.6 56.7v2.25h-33.3l-13.5-13.5-10.35-10.35-10.35-10.35-27.9 7.2-7.65 27.9 10.35 10.35 10.35 10.35 13.5 13.5v33.3h-2.7c-20.25 0.9-40.95-6.3-56.25-21.6-13.05-13.05-20.25-29.7-21.6-46.8-0.9-10.35 0.45-20.7 3.6-30.6v-0.9c0.9-3.6 1.35-7.65-3.15-11.7C531.98333333 364.83333332999996 371.33333333 211.83333332999996 371.33333333 211.83333332999996c-13.5-11.25-12.6-32.85 0-45.45s33.75-13.05 45.45 0c0 0 151.65 160.2 157.95 166.95 3.15 3.6 6.75 4.5 9.45 4.05z m-182.25-155.25c-4.5-4.5-10.8-4.5-15.3 0s-4.5 10.8 0 15.3 10.8 4.5 15.3 0c3.6-4.5 3.6-11.25 0-15.3z"  horiz-adv-x="1024" />

    
    <glyph glyph-name="vm-nonresponsive" unicode="&#58930;" d="M559.104 616.96L486.4 617.472l-0.512-231.936L332.8 255.48800000000006l49.152-50.176 176.64 155.648 0.512 256zM739.328 327.168c-94.208 0-170.496-76.288-170.496-170.496s76.288-170.496 170.496-170.496 170.496 76.288 170.496 170.496-75.776 170.496-170.496 170.496z m0-284.672c-15.872 0-28.672 12.8-28.672 28.672 0 15.872 12.8 28.672 28.672 28.672 15.872 0 28.672-12.8 28.672-28.672 0.512-15.36-12.288-28.672-28.672-28.672z m19.456 82.944h-38.4l-9.728 144.384h57.856l-9.728-144.384zM512 783.872c-220.672 0-399.872-179.2-399.872-399.872s179.2-399.872 399.872-399.872c30.208 0 58.88 3.584 87.04 9.728-2.048 2.56-4.096 5.12-5.632 7.168-2.048 1.024-3.584 2.56-5.632 3.584-7.68 5.632-14.336 12.288-19.968 19.968-5.12 7.168-8.192 15.36-14.336 21.504-2.048 2.048-4.096 4.608-5.12 7.168-2.048 2.048-3.584 4.096-5.632 6.144-10.24-1.024-20.48-1.536-30.72-1.536-179.712 0-325.632 145.92-325.632 325.632S332.288 709.6320000000001 512 709.6320000000001s325.632-145.92 325.632-325.632c0-16.384-1.024-32.256-3.584-48.128 3.584-2.048 6.656-4.096 9.728-6.144 22.528-8.192 39.936-25.088 55.808-43.008 7.68 31.232 11.776 63.488 11.776 97.28 0.512 220.672-178.688 399.872-399.36 399.872z"  horiz-adv-x="1024" />

    
    <glyph glyph-name="host-nonresponsive" unicode="&#59602;" d="M559.104 616.96L486.4 617.472l-0.512-231.936L332.8 255.48800000000006l49.152-50.176 176.64 155.648 0.512 256zM739.328 327.168c-94.208 0-170.496-76.288-170.496-170.496s76.288-170.496 170.496-170.496 170.496 76.288 170.496 170.496-75.776 170.496-170.496 170.496z m0-284.672c-15.872 0-28.672 12.8-28.672 28.672 0 15.872 12.8 28.672 28.672 28.672 15.872 0 28.672-12.8 28.672-28.672 0.512-15.36-12.288-28.672-28.672-28.672z m19.456 82.944h-38.4l-9.728 144.384h57.856l-9.728-144.384zM512 783.872c-220.672 0-399.872-179.2-399.872-399.872s179.2-399.872 399.872-399.872c30.208 0 58.88 3.584 87.04 9.728-2.048 2.56-4.096 5.12-5.632 7.168-2.048 1.024-3.584 2.56-5.632 3.584-7.68 5.632-14.336 12.288-19.968 19.968-5.12 7.168-8.192 15.36-14.336 21.504-2.048 2.048-4.096 4.608-5.12 7.168-2.048 2.048-3.584 4.096-5.632 6.144-10.24-1.024-20.48-1.536-30.72-1.536-179.712 0-325.632 145.92-325.632 325.632S332.288 709.6320000000001 512 709.6320000000001s325.632-145.92 325.632-325.632c0-16.384-1.024-32.256-3.584-48.128 3.584-2.048 6.656-4.096 9.728-6.144 22.528-8.192 39.936-25.088 55.808-43.008 7.68 31.232 11.776 63.488 11.776 97.28 0.512 220.672-178.688 399.872-399.36 399.872z"  horiz-adv-x="1024" />

    
    <glyph glyph-name="duandian" unicode="&#58926;" d="M645.12-111.10400000000004c-103.936 0-187.904 83.456-187.904 187.904v136.704h68.096V76.79999999999995c0-66.56 52.736-119.296 119.296-119.296s119.296 52.736 119.296 119.296h68.096c1.024-103.936-84.48-187.904-186.88-187.904zM631.296-128c-103.936 0-187.904 83.456-187.904 187.904v136.704H512v-136.704c0-66.56 52.736-119.296 119.296-119.296s133.12 70.144 133.12 136.704l82.432-0.512c0-104.448-113.152-204.8-215.552-204.8zM321.024 879.104H389.12v-204.8H321.024zM593.92 879.104h96.256v-204.8H593.92zM358.4 476.672h272.896V384H358.4V476.672zM755.2 179.20000000000005H248.832L155.648 438.784l-5.12 269.824h681.984v-269.824L755.2 179.20000000000005zM307.2 247.29600000000005h387.072l60.416 201.216V619.52H238.592l-5.12-170.496L307.2 247.29600000000005zM96.6144 217.19552L916.41856 772.608l51.11808-75.45344L147.7376 141.74720000000002z"  horiz-adv-x="1024" />

    
    <glyph glyph-name="strategy" unicode="&#58935;" d="M979.1855123 577.71956148L512.95269925 830.86692503 46.72109985 577.71956148l466.2315994-253.12673185 466.23281305 253.12673185zM512.95269925 746.81700503L824.47322075 577.71834785 512.95269925 408.64032237 201.43460503 577.71956148l311.51809422 169.09987082z m407.9082003-311.45377185l58.32582637-47.41650963-466.23281303-253.15100444-466.23159941 253.15100444 58.23480415 47.41650963 407.86208237-226.42081185L920.85968592 435.36566045z m0-189.79104236l58.32582637-47.39830519-466.23402667-253.14979081-466.2315994 253.03692326 58.23480415 47.41772325 407.86208237-226.42202548L920.85968592 245.57340445z"  horiz-adv-x="1024" />

    
    <glyph glyph-name="template1" unicode="&#58937;" d="M888.32 18.559687499999995h-58.2403125V645.7603125c0 30.72-24.96 55.68-55.68 55.68H147.2v58.239375C147.2 816.6403124999999 193.9203125 863.3596875 250.88 863.3596875h638.0803125c56.9596875 0 103.68-46.719375 103.68-103.68v-638.079375c-0.6403125-56.960625-47.360625-103.040625-104.3203125-103.040625z m-10.8796875 47.360625h10.8796875c30.72 0 55.68 24.96 55.68 55.68V759.6796875c0 30.72-24.96 55.68-55.68 55.68H250.2396875c-30.72 0-55.68-24.96-55.68-55.68v-10.8796875h579.84c56.960625 0 103.68-46.7203125 103.68-103.68v-579.1996875zM773.759375-96H136.32125C79.3596875-96 32.6403125-49.27968750000002 32.6403125 7.67999999999995V645.7603125c0 56.9596875 46.719375 103.68 103.68 103.68h34.56v-48h-34.56c-30.72 0-55.68-24.96-55.68-55.68v-638.0803125c0-30.72 24.96-55.68 55.68-55.68h638.079375c30.72 0 55.68 24.96 55.68 55.68v34.56h48v-34.56C877.4403125-49.27968750000002 831.3603125-96 773.7603125-96zM877.4403125 42.24000000000001h-48V645.7603125c0 30.72-24.96 55.68-55.68 55.68H170.8803125v48h603.519375c56.960625 0 103.68-46.7203125 103.68-103.68v-603.5203125zM220.8003125 558.72h193.2796875v-193.2796875H220.8003125z m273.279375 0h193.280625v-193.2796875H494.0796875zM220.8003125 286.08000000000004h193.2796875v-193.2796875H220.8003125z m273.279375 0h193.280625v-193.2796875H494.0796875z"  horiz-adv-x="1024" />

    
    <glyph glyph-name="vm-poweringdown" unicode="&#58890;" d="M919.6086957 760.7341043l-374.34028622-557.3825086L170.96582041 760.7341043zM919.6086957 591.09349102l-374.34028622-557.3825086L170.96582041 591.09349102zM919.6086957 402.60392021l-374.34028622-428.58758408L170.96582041 402.60392021z"  horiz-adv-x="1066" />

    
    <glyph glyph-name="vm-poweringup" unicode="&#58891;" d="M149.76074375 6.775822850000054l376.69640625 560.86956563 376.6587082-560.86956563zM149.76074375 176.41643613999997L526.45715 737.28600175l376.6587082-560.86956562zM149.76074375 364.90600693l376.69640625 431.26413663 376.6587082-431.26413663z"  horiz-adv-x="1066" />

    
    <glyph glyph-name="os-qilin" unicode="&#58925;" d="M248.195122 728.97561s24.97561-31.219512 65.560976-37.463415c12.737561-1.966829 40.585366-15.609756 71.804878 6.243903 11.426341 7.992195 12.487805 15.609756 12.487804 15.609756s-12.487805 0-18.731707-3.121952-21.853659 3.121951-31.219512 6.243903-28.097561-3.121951-31.219512-15.609756c-0.749268-3.028293-15.609756-3.121951-15.609756 18.731707 0 9.365854 9.365854 15.609756 31.219512 15.609756 9.865366 0 49.639024 37.463415 65.560975 37.463415 9.365854 0 21.853659 6.243902 62.439025-9.365854 8.741463-3.371707 40.585366 12.487805 56.195122 18.731707s81.170732 59.317073 90.536585 71.804879 21.853659 34.341463 28.097561 31.219512 9.365854-12.487805-6.243902-37.463415c-7.399024-11.832195-31.219512-53.073171-112.390244-121.756097-8.585366-7.274146-18.731707-12.487805-18.731707-12.487805s12.487805-6.243902 43.707317-37.463415c12.487805-12.487805 28.097561-40.585366 37.463414-78.04878 3.87122-15.453659 0-65.560976 0-65.560976s-18.731707 24.97561-53.073171 34.341463c-12.425366 3.371707-31.219512 3.121951-56.195121 6.243903-6.181463 0.780488 46.829268-9.365854 62.439024-24.97561 11.051707-11.051707 59.317073-28.097561 43.707317-115.512195-3.465366-19.449756-21.853659-46.829268-65.560976-59.317073-9.490732-2.716098-59.317073-9.365854-74.926829 46.829268-2.497561 9.022439 0 49.95122 37.463415 53.073171 12.83122 1.061463 28.097561 0 28.097561 0s-9.365854 3.121951-18.731708-9.365854-24.97561-31.219512 3.121952-49.951219c2.59122-1.717073 34.341463-6.243902 37.463414 37.463414 0.65561 9.334634-3.121951 31.219512-24.975609 43.707317-8.585366 4.901463-28.097561 15.609756-62.439025-3.121951-11.613659-6.337561-34.341463-28.097561-28.097561-84.292683 1.748293-15.828293 18.731707-46.829268 62.439025-56.195122 12.581463-2.684878 71.804878-21.853659 156.097561 53.073171 6.587317 5.869268 81.170732 65.560976 156.09756 74.926829 15.797073 1.966829 90.536585-6.243902 109.268293-15.609756s46.829268-21.853659 68.682927-43.707317c11.051707-11.051707 12.487805-6.243902 12.487805-6.243902s-9.365854 37.463415 28.097561 81.170731c14.360976 16.764878 74.926829 53.073171 90.536585 56.195122s46.829268 34.341463 49.95122 43.707317 6.243902 24.97561 6.243902 24.97561 18.731707-34.341463 3.121951-74.926829c-5.713171-14.860488-6.243902-21.853659-28.097561-40.585366-13.830244-11.832195-67.933659-40.741463-71.804878-56.195122-6.243902-24.97561-12.487805-62.439024 21.853659-74.926829 10.583415-3.84 40.585366-15.609756 59.317073 15.609756 5.08878 8.460488 6.243902 31.219512-9.365854 37.463414-2.903415 1.155122-18.731707 12.487805-34.341463-3.121951-6.993171-6.993171 3.121951-24.97561 12.487805-24.97561 6.243902 0 18.731707 3.121951 18.731707 9.365854s6.243902 0-3.121951-12.487805c-4.183415-5.588293-21.853659-21.853659-49.95122 3.121951-6.993171 6.212683-9.365854 46.829268 15.609757 56.195122 13.080976 4.901463 46.829268 15.609756 59.317073-3.121951 0 0 40.585366-21.853659 24.975609-78.04878-3.746341-13.45561-12.487805-34.341463-65.560975-56.195122-8.647805-3.559024-31.219512-6.243902-65.560976 6.243902-2.934634 1.061463 14.579512-55.133659 12.487805-71.804878-3.121951-24.97561-3.121951-68.682927-46.829268-109.268293-9.709268-9.022439-21.853659-21.853659-49.95122-34.341463-2.840976-1.28 28.097561-53.073171 49.95122-84.292683 8.96-12.8 18.731707-18.731707 18.731707-18.731707s-24.97561-15.609756-31.219512-21.853659-43.707317-37.463415-46.829268-68.682927h-106.146342s49.95122 24.97561 74.926829 59.317074c5.182439 7.149268 28.097561 28.097561 28.097561 28.097561s-84.292683 37.463415-99.902439 56.195122c-7.211707 8.647805-65.560976 43.707317-74.926829 121.756097-0.749268 6.212683 6.243902 71.804878 59.317073 81.170732 24.788293 4.370732 53.073171 12.487805 81.170732-24.97561 0 0 15.609756-34.341463-6.243902-59.317073-4.589268-5.244878-6.243902-12.487805-34.341464-9.365854-4.401951 0.499512 15.609756 6.243902 18.731708 21.853659 1.373659 6.837073 0 34.341463-28.097561 31.219512-9.802927-1.092683-40.585366-9.365854-31.219513-62.439024 2.310244-13.049756 34.341463-37.463415 68.682927-24.97561 14.954146 5.432195 65.560976 18.731707 53.073171 87.414634-1.779512 9.709268-9.365854 49.95122-53.073171 74.926829-13.830244 7.898537-53.073171 18.731707-106.146341-12.487805-15.235122-8.96-62.439024-87.414634-99.902439-118.634146-10.177561-8.491707-56.195122-46.829268-112.390244-59.317073-9.646829-2.154146-109.268293-24.97561-159.219512-3.121951-2.872195 1.24878-31.219512-62.439024-31.219513-62.439025s-68.682927-31.219512-103.02439-81.170731c-8.835122-12.862439-21.853659-28.097561-24.97561-43.707318-0.874146-4.339512-143.609756 0-143.609756 0v6.243903s15.609756-6.243902 46.829269 9.365854c6.243902 3.121951 78.04878 40.585366 106.146341 90.536585 11.051707 19.637073 28.097561 49.95122 31.219512 106.146341 0.686829 12.456585-3.121951 37.463415-9.365853 43.707317s-53.853659 60.472195-59.317074 68.682927c-6.243902 9.365854-53.073171 71.804878-37.463414 181.073171 3.371707 23.539512 27.598049 74.427317 37.463414 84.292683 12.487805 12.487805 43.707317 37.463415 43.707317 37.463415s-28.097561 0-37.463414-6.243903-24.97561-21.853659-34.341464-43.707317c-2.747317-6.43122-3.121951-6.243902-3.121951-6.243902l-9.365853 37.463414c-1.529756 6.056585-6.243902 12.487805-9.365854 12.487805s-15.609756 28.097561-12.487805 37.463415 15.609756 12.487805 15.609756 12.487805 9.365854 15.609756 12.487805 15.609756 3.121951-9.365854 3.121951-12.487805 6.243902-12.487805 15.609756-12.487805h81.170732c6.993171 0 12.487805 6.243902 12.487805 6.243902s-40.866341 3.964878-49.95122 6.243903c-12.487805 3.121951-43.707317 18.731707-46.829268 21.853658s-6.243902 9.365854-6.243902 9.365854 49.95122-12.487805 65.560975-12.487805 54.38439 4.433171 59.317073 9.365854c3.121951 3.121951-3.121951 18.731707-15.609756 24.97561 0 0-34.341463 21.853659-81.170731 24.975609 0 0-37.463415 0-46.829269-15.609756-5.08878-8.460488 9.365854-15.609756 12.487805-18.731707s-15.609756 0-21.853658 3.121951-6.243902 12.487805-6.243903 12.487805-12.487805-3.121951-21.853658 0-21.853659 21.853659-9.365854 53.073171c4.183415 10.458537 21.853659 15.609756 37.463415 15.609756h15.609756s-6.243902 24.97561 6.243902 28.097561 28.097561 6.243902 53.073171-15.609756zM170.146341 338.73170700000003s0-74.926829 46.829269-118.634146c2.279024-2.122927-56.070244 2.52878-68.682927 0-15.609756-3.121951-43.707317-6.243902-31.219512-40.585366 4.776585-13.112195 40.585366-56.195122 49.951219-59.317073s9.365854-3.121951 18.731708 6.243902c3.121951 3.121951 6.243902-3.121951 6.243902-3.121951s6.243902-9.365854-21.853659-28.097561c-9.365854-6.243902-43.707317-40.585366-43.707317-40.585366s-6.243902-12.487805-28.097561-6.243902c-5.994146 1.717073 9.365854 0 12.487805 6.243902s15.609756 31.219512-21.853658 93.658537c-9.365854 15.609756-53.073171 96.780488-59.317073 96.780488s78.04878 21.853659 78.04878 21.853658l31.219512 6.243903s0 43.707317 31.219512 65.560975zM747.707317 154.53658499999995s12.487805-65.560976 49.95122-90.536585c7.336585-4.901463-18.731707 0-40.585366-3.121951-6.899512-0.999024-43.707317-40.585366-49.95122-43.707317s-18.731707-15.609756-18.731707-21.853659 6.243902-12.487805 15.609756-12.487805c6.243902 0 0-9.365854 0-9.365853h-134.243902s-27.441951 7.555122-21.853659 18.731707c3.121951 6.243902 6.243902-12.487805 28.097561 0 8.585366 4.901463 74.926829 31.219512 96.780488 53.073171 12.487805 12.487805 49.95122 46.829268 74.926829 109.268292zM494.11122 772.401951s1.810732 51.82439 28.815609 72.085854c12.487805 9.365854 21.853659 9.365854 24.97561 9.365854s-9.365854-18.731707-15.609756-34.341464-7.773659-33.186341-7.773659-33.186341l-30.407804-13.923903z"  horiz-adv-x="1205" />

    
    <glyph glyph-name="os-ubuntu" unicode="&#58924;" d="M733.827417 793.559044c0-56.570343 45.819418-102.389761 102.338566-102.440956 56.570343 0 102.389761 45.819418 102.440956 102.338566V793.559044c0 56.570343-45.819418 102.389761-102.338566 102.440956-56.570343 0-102.389761-45.819418-102.440956-102.338566V793.559044zM733.827417-25.55904399999997c0-56.570343 45.819418-102.389761 102.338566-102.440956 56.570343 0 102.389761 45.819418 102.440956 102.338566V-25.55904399999997c0 56.570343-45.819418 102.389761-102.338566 102.440956-56.570343 0-102.389761-45.819418-102.440956-102.338566v-0.10239zM17.09909 384c0-56.570343 45.819418-102.389761 102.389761-102.389761s102.389761 45.819418 102.389761 102.389761v0.051195c0 56.570343-45.819418 102.389761-102.389761 102.389761-56.519148 0-102.338566-45.870613-102.389761-102.440956 0 0.051195 0 0 0 0zM457.375062 233.845415C413.040296 271.371263 389.132287 329.37506199999996 389.132287 384c0 61.433857 27.286871 116.058794 71.672832 157.014699 6.808919 6.808919 6.808919 13.669033 3.430057 20.477952L378.893311 711.647235c-3.430057 3.430057-6.808919 6.808919-10.238976 6.808919-3.430057 0-10.238976 0-13.669034-3.430057C283.312469 663.8824119999999 228.738726 588.779522 204.830717 503.437656c-3.430057-6.808919 0-13.617838 3.430057-17.047895 30.716928-27.286871 44.385961-61.433857 44.385961-102.389761s-17.047895-75.10289-44.385961-102.389761c-3.430057-3.430057-6.808919-10.238976-3.430057-17.047895 23.908009-81.911809 78.481752-157.014699 146.775722-208.209579 3.430057-3.430057 6.808919-3.430057 10.238976-3.430057h3.430057c3.430057 0 10.238976 3.430057 10.238977 6.808919L460.805119 209.937406c6.808919 6.808919 3.430057 17.047895-3.430057 23.908009zM529.047895 592.2095790000001c3.430057-6.808919 10.238976-10.238976 20.477952-6.808919 17.047895 3.430057 34.146985 6.808919 47.764824 6.808919 95.580842 0 177.492651-64.863914 197.970603-157.014698 3.430057-6.808919 10.238976-13.669033 17.047895-13.669034h177.492651c3.430057 0 10.238976 3.430057 13.669033 6.80892 3.430057 3.430057 3.430057 10.238976 3.430057 13.669033-10.238976 81.911809-47.764824 160.393561-105.819818 221.827417-3.430057 3.430057-10.238976 6.808919-17.047895 3.430057-20.477952-6.808919-34.146985-10.238976-47.764824-10.238976-64.863914 0-122.867713 47.764824-133.106689 112.628737 0 6.808919-6.808919 13.669033-13.669033 13.669033-81.911809 20.477952-163.823618 13.669033-238.926508-17.047895-6.808919 0-10.238976-6.808919-10.238976-10.238976V742.364164l88.720728-150.154585zM982.992901 349.853015h-174.062594c-6.808919 0-13.669033-6.808919-17.047895-13.669033-27.286871-109.19868-139.915608-180.871513-252.544346-150.154585-6.808919 3.430057-17.047895 0-20.477952-6.808919l-85.341866-150.154585c-3.430057-3.430057-3.430057-10.238976 0-13.669033 0-3.430057 6.808919-6.808919 10.238976-10.238976 47.764824-20.477952 98.959704-30.716928 153.584642-30.716928 30.716928 0 61.433857 3.430057 92.150785 10.238976 6.808919 0 10.238976 6.808919 13.669033 13.669033 10.238976 64.863914 68.242776 112.628737 133.106689 112.628737 13.669033 0 27.286871-3.430057 44.385962-6.808919 6.808919-3.430057 13.669033 0 17.047895 3.430057 58.0038 61.433857 92.150785 139.915608 105.819818 221.827417 0 3.430057 0 10.238976-3.430057 13.669033-6.860114 3.378862-10.290171 6.757724-17.09909 6.757725z"  horiz-adv-x="1024" />

    
    <glyph glyph-name="os-windows7" unicode="&#58936;" d="M180.532703 388.632507c158.678976 65.355497 235.486292 30.474059 304.269865-16.21838l-79.440283-273.0447c-69.018933 46.431495-144.083559 84.635609-303.396985 18.776645l77.643358 270.088368L180.532703 388.632507zM526.399965 346.011804c68.989257-46.397726 139.539057-80.43903 301.656341-24.985044l-75.661214-263.243473c-159.14151-65.832358-235.541551-28.585035-304.439734 18.128893L526.399965 346.011804zM498.022661 421.636179c-41.512463 27.970028-86.198198 54.113455-149.667741 54.582129-41.86448 0.322341-91.709725-11.587919-155.011446-37.731346l78.410837 271.752264c159.198815 65.822125 235.701187 28.520567 304.673048-18.128893L498.022661 421.636179zM922.033677 646.003226c-158.988014-65.700351-235.394195-28.753881-304.214606 17.613146l-78.428234-271.986601c68.7672-46.62797 151.876036-84.896552 304.315914-16.685008L922.033677 646.003226z"  horiz-adv-x="1024" />

    
    <glyph glyph-name="os-windows" unicode="&#59040;" d="M456 412V735.9l-335.9-72V412H456zM512 412h391.8V831.8l-391.8-84V412zM456 356H120.2v-251.9l335.9-72V356zM512 356v-335.9l391.8-84V356H512z"  horiz-adv-x="1024" />

    
    <glyph glyph-name="os-puhua" unicode="&#58923;" d="M517.408451 374.985915m-438.084507 0a438.084507 438.084507 0 1 1 876.169014 0 438.084507 438.084507 0 1 1-876.169014 0ZM728.338028 430.873239s21.633803 10.816901 42.618592 78.170141c5.985352 19.181972 69.156056-110.620845 0-305.433239C754.767324 158.03493000000003 699.492958 19.830986000000053 551.661972 9.014085000000023c-129.514366-9.482817-212.732394 36.056338-256.79324 113.757746C268.11493 170.005634 241.577465 326.30985899999996 357.750986 401.270986c52.786479 34.037183 26.934085 8.978028 26.934084 8.978028S319.134648 325.33633799999996 342.535211 243.38028199999997c21.633803-75.71831 68.507042-115.380282 149.95831-120.608451 102.255775-6.526197 160.018028 126.233239 124.069859 189.115493s-160.018028 224.126197-303.738591 313.942535C280.51831 646.0214080000001 259.605634 668.84507 259.605634 668.84507s99.299155-27.150423 144.225352-54.084507 288.450704-191.098592 324.507042-183.887324zM549.483325 537.3789320000001a96.955493 183.815211 45.001000000000005 1 1 137.11338 137.118166 96.955493 183.815211 45.001000000000005 1 1-137.11338-137.118166Z"  horiz-adv-x="1042" />

    
    <glyph glyph-name="tc-online" unicode="&#59610;" d="M936.3456 852.95104H87.69536c-44.6464 0-80.85504-38.01088-80.85504-84.82816v-532.02944c0-46.8992 36.20864-84.86912 80.85504-84.86912h288.03072v-97.97632H318.6688v-64.26624h-73.728v-82.78016h534.1184v82.78016h-73.64608v64.26624h-57.09824v97.97632h288.03072c44.6464 0 80.85504 38.01088 80.85504 84.86912V768.12288c0 46.81728-36.20864 84.82816-80.85504 84.82816z m-7.53664-615.8336H95.232V767.05792h833.57696v-529.94048zM715.3664 627.9168l-54.39488 54.39488-198.16448-198.16448L363.1104 583.8848 308.71552 529.48992l154.91072-154.91072 54.35392 54.35392-0.8192 0.86016z"  horiz-adv-x="1024" />

    
    <glyph glyph-name="tc-offline" unicode="&#58906;" d="M936.3456 852.95104H87.69536c-44.6464 0-80.85504-38.01088-80.85504-84.82816v-532.02944c0-46.8992 36.20864-84.86912 80.85504-84.86912h288.03072v-97.97632H318.6688v-64.26624h-73.728v-82.78016h534.1184v82.78016h-73.64608v64.26624h-57.09824v97.97632h288.03072c44.6464 0 80.85504 38.01088 80.85504 84.86912V768.12288c0 46.81728-36.20864 84.82816-80.85504 84.82816z m-7.53664-615.8336H95.232V767.05792h833.57696v-529.94048zM715.3664 627.9168l-54.39488 54.39488-198.16448-198.16448L363.1104 583.8848 308.71552 529.48992l154.91072-154.91072 54.35392 54.35392-0.8192 0.86016z"  horiz-adv-x="1024" />

    
    </font>
</defs>
</svg>
